<svg width="28" height="20" viewBox="0 0 28 20" fill="none" xmlns="http://www.w3.org/2000/svg">
<g clip-path="url(#clip0_1_2)">
<path d="M29.5385 18.2735C29.5385 19.2029 29.1693 20.0942 28.5121 20.7514C27.8549 21.4086 26.9636 21.7778 26.0342 21.7778H1.50427C0.574882 21.7778 -0.316443 21.4086 -0.973622 20.7514C-1.6308 20.0942 -2 19.2029 -2 18.2735V2.50427C-2 1.57488 -1.6308 0.683557 -0.973622 0.0263778C-0.316443 -0.630801 0.574882 -1 1.50427 -1H26.0342C26.9636 -1 27.8549 -0.630801 28.5121 0.0263778C29.1693 0.683557 29.5385 1.57488 29.5385 2.50427V18.2735Z" fill="#009B3A"/>
<path d="M26.6719 10.3889L13.7692 20.1343L0.866425 10.3889L13.7692 0.642632L26.6719 10.3889Z" fill="#FEDF01"/>
<path d="M13.7481 15.98C16.8728 15.98 19.4058 13.4469 19.4058 10.3223C19.4058 7.19767 16.8728 4.66466 13.7481 4.66466C10.6235 4.66466 8.09048 7.19767 8.09048 10.3223C8.09048 13.4469 10.6235 15.98 13.7481 15.98Z" fill="#002776"/>
<path d="M8.75547 7.66169C8.46162 8.21543 8.26263 8.81448 8.16675 9.43398C11.6666 9.17992 16.4167 11.0906 18.4553 13.4595C18.8075 12.9304 19.0685 12.3381 19.2289 11.7039C16.7128 9.24387 12.293 7.64767 8.75547 7.66169Z" fill="#CBE9D4"/>
<path d="M8.51282 10.593H9.38889V11.4691H8.51282V10.593ZM9.38889 12.3452H10.265V13.2212H9.38889V12.3452Z" fill="#88C9F9"/>
<path d="M11.1411 10.593H12.0171V11.4691H11.1411V10.593ZM12.8932 11.4691H13.7693V12.3451H12.8932V11.4691ZM16.3975 13.2212H17.2735V14.0973H16.3975V13.2212ZM13.7693 14.0973H14.6453V14.9734H13.7693V14.0973ZM16.3975 8.84087H17.2735V9.71694H16.3975V8.84087Z" fill="#55ACEE"/>
<path d="M14.6453 12.3451H15.5213V13.2212H14.6453V12.3451Z" fill="#3B88C3"/>
</g>
<defs>
<clipPath id="clip0_1_2">
<rect width="28" height="20" rx="2" fill="white"/>
</clipPath>
</defs>
</svg>
