<svg width="360" height="193" viewBox="0 0 360 193" fill="none" xmlns="http://www.w3.org/2000/svg">
<g clip-path="url(#clip0_17_9265)">
<path d="M360 0H0V193H360V0Z" fill="white"/>
<path d="M324.555 93.5C327.562 93.5 330.031 91.055 329.701 88.066C328.832 80.198 326.085 72.6249 321.658 65.9993C316.219 57.859 308.488 51.5145 299.443 47.768C290.398 44.0214 280.445 43.0412 270.843 44.9511C261.241 46.8611 252.421 51.5755 245.498 58.4982C238.576 65.4209 233.861 74.241 231.951 83.843C230.041 93.445 231.021 103.398 234.768 112.443C238.515 121.488 244.859 129.219 252.999 134.658C259.625 139.085 267.198 141.832 275.066 142.701C278.055 143.031 280.5 140.562 280.5 137.555C280.5 134.548 278.05 132.149 275.073 131.727C269.363 130.916 263.883 128.833 259.049 125.603C252.7 121.361 247.751 115.33 244.829 108.275C241.907 101.22 241.142 93.457 242.632 85.968C244.122 78.478 247.799 71.5983 253.199 66.1986C258.598 60.7989 265.478 57.1217 272.968 55.6319C280.457 54.1421 288.22 54.9067 295.275 57.829C302.33 60.7513 308.361 65.7001 312.603 72.0494C315.833 76.883 317.916 82.363 318.727 88.073C319.149 91.05 321.548 93.5 324.555 93.5Z" fill="#E772FF"/>
<path d="M254.564 129.112C252.794 131.543 253.317 134.978 255.927 136.471C262.799 140.4 270.538 142.638 278.5 142.96C288.282 143.355 297.962 140.841 306.315 135.735C314.668 130.629 321.32 123.161 325.429 114.274C328.773 107.041 330.31 99.134 329.947 91.226C329.809 88.222 326.99 86.19 324.019 86.657C321.049 87.124 319.06 89.917 319.105 92.924C319.191 98.69 317.984 104.427 315.544 109.704C312.339 116.635 307.151 122.46 300.636 126.443C294.12 130.426 286.57 132.387 278.94 132.078C273.131 131.844 267.475 130.302 262.382 127.596C259.727 126.185 256.334 126.681 254.564 129.112Z" fill="#EDEAFF"/>
<path d="M324.555 93.5C327.562 93.5 330.031 91.055 329.701 88.066C329.189 83.431 328.024 78.8822 326.232 74.5572C323.744 68.5516 320.098 63.0947 315.502 58.4982C310.905 53.9017 305.448 50.2556 299.443 47.768C295.118 45.9765 290.569 44.8111 285.934 44.2992C282.945 43.969 280.5 46.4378 280.5 49.445C280.5 52.4522 282.95 54.8506 285.927 55.2733C289.131 55.7282 292.272 56.5851 295.275 57.829C299.96 59.7693 304.216 62.6133 307.801 66.1986C311.387 69.7839 314.231 74.0402 316.171 78.7246C317.415 81.728 318.272 84.869 318.727 88.073C319.149 91.05 321.548 93.5 324.555 93.5Z" fill="#763EBD"/>
<path opacity="0.67" d="M30.321 47.0909H31.8977L35.6051 56.1463H35.733L39.4403 47.0909H41.017V58H39.7812V49.7116H39.6747L36.2656 58H35.0724L31.6634 49.7116H31.5568V58H30.321V47.0909ZM46.9257 58.1705C46.1373 58.1705 45.4573 57.9964 44.8856 57.6484C44.3174 57.2969 43.8788 56.8068 43.5699 56.1783C43.2645 55.5462 43.1118 54.8111 43.1118 53.973C43.1118 53.1349 43.2645 52.3963 43.5699 51.7571C43.8788 51.1143 44.3085 50.6136 44.8589 50.255C45.4129 49.8928 46.0592 49.7116 46.7979 49.7116C47.224 49.7116 47.6448 49.7827 48.0603 49.9247C48.4758 50.0668 48.854 50.2976 49.1949 50.6172C49.5358 50.9332 49.8074 51.3523 50.0099 51.8743C50.2123 52.3963 50.3135 53.0391 50.3135 53.8026V54.3352H44.0067V53.2486H49.0351C49.0351 52.7869 48.9427 52.375 48.7581 52.0128C48.577 51.6506 48.3177 51.3647 47.9804 51.1552C47.6466 50.9457 47.2524 50.8409 46.7979 50.8409C46.2971 50.8409 45.8639 50.9652 45.4981 51.2138C45.1359 51.4588 44.8572 51.7784 44.6618 52.1726C44.4665 52.5668 44.3689 52.9893 44.3689 53.4403V54.1648C44.3689 54.7827 44.4754 55.3065 44.6885 55.7362C44.9051 56.1623 45.2052 56.4872 45.5887 56.7109C45.9722 56.9311 46.4179 57.0412 46.9257 57.0412C47.2559 57.0412 47.5542 56.995 47.8206 56.9027C48.0905 56.8068 48.3231 56.6648 48.5184 56.4766C48.7137 56.2848 48.8646 56.0469 48.9711 55.7628L50.1856 56.1037C50.0578 56.5156 49.843 56.8778 49.5411 57.1903C49.2393 57.4993 48.8664 57.7408 48.4225 57.9148C47.9786 58.0852 47.4797 58.1705 46.9257 58.1705ZM57.382 54.6548V49.8182H58.6391V58H57.382V56.6151H57.2968C57.105 57.0305 56.8067 57.3839 56.4019 57.6751C55.9971 57.9627 55.4857 58.1065 54.8678 58.1065C54.3564 58.1065 53.9019 57.9947 53.5042 57.771C53.1064 57.5437 52.7939 57.2028 52.5667 56.7482C52.3394 56.2901 52.2258 55.7131 52.2258 55.017V49.8182H53.4829V54.9318C53.4829 55.5284 53.6498 56.0043 53.9836 56.3594C54.3209 56.7145 54.7506 56.892 55.2726 56.892C55.5851 56.892 55.903 56.8121 56.2261 56.6523C56.5528 56.4925 56.8263 56.2475 57.0464 55.9173C57.2702 55.587 57.382 55.1662 57.382 54.6548ZM66.737 51.6506L65.6078 51.9702C65.5368 51.782 65.432 51.5991 65.2935 51.4215C65.1586 51.2404 64.9739 51.0913 64.7395 50.9741C64.5051 50.8569 64.2051 50.7983 63.8393 50.7983C63.3386 50.7983 62.9213 50.9137 62.5875 51.1445C62.2573 51.3718 62.0922 51.6612 62.0922 52.0128C62.0922 52.3253 62.2058 52.5721 62.4331 52.7532C62.6603 52.9343 63.0154 53.0852 63.4984 53.206L64.7129 53.5043C65.4444 53.6818 65.9895 53.9535 66.3482 54.3192C66.7069 54.6815 66.8862 55.1484 66.8862 55.7202C66.8862 56.1889 66.7512 56.608 66.4814 56.9773C66.215 57.3466 65.8422 57.6378 65.3627 57.8509C64.8833 58.0639 64.3258 58.1705 63.6902 58.1705C62.8556 58.1705 62.165 57.9893 61.6181 57.6271C61.0712 57.2649 60.725 56.7358 60.5794 56.0398L61.7725 55.7415C61.8862 56.1818 62.101 56.5121 62.4171 56.7322C62.7367 56.9524 63.1539 57.0625 63.6689 57.0625C64.2548 57.0625 64.72 56.9382 65.0645 56.6896C65.4125 56.4375 65.5865 56.1357 65.5865 55.7841C65.5865 55.5 65.487 55.2621 65.2882 55.0703C65.0893 54.875 64.7839 54.7294 64.372 54.6335L63.0083 54.3139C62.2591 54.1364 61.7086 53.8612 61.3571 53.4883C61.0091 53.1119 60.835 52.6413 60.835 52.0767C60.835 51.6151 60.9647 51.2067 61.2239 50.8516C61.4867 50.4964 61.8436 50.2177 62.2946 50.0153C62.7491 49.8129 63.264 49.7116 63.8393 49.7116C64.649 49.7116 65.2846 49.8892 65.7463 50.2443C66.2115 50.5994 66.5417 51.0682 66.737 51.6506ZM74.4887 47.0909V58H73.1677V47.0909H74.4887ZM76.967 58V49.8182H78.1815V51.0966H78.288C78.4585 50.6598 78.7337 50.3207 79.1136 50.0792C79.4936 49.8342 79.9499 49.7116 80.4826 49.7116C81.0224 49.7116 81.4716 49.8342 81.8303 50.0792C82.1925 50.3207 82.4748 50.6598 82.6772 51.0966H82.7624C82.9719 50.674 83.2862 50.3384 83.7053 50.0898C84.1243 49.8377 84.6268 49.7116 85.2127 49.7116C85.9442 49.7116 86.5426 49.9407 87.0078 50.3988C87.473 50.8533 87.7056 51.5618 87.7056 52.5241V58H86.4485V52.5241C86.4485 51.9205 86.2834 51.489 85.9531 51.2298C85.6229 50.9705 85.234 50.8409 84.7866 50.8409C84.2113 50.8409 83.7656 51.0149 83.4496 51.3629C83.1335 51.7074 82.9755 52.1442 82.9755 52.6733V58H81.6971V52.3963C81.6971 51.9311 81.5462 51.5565 81.2443 51.2724C80.9425 50.9847 80.5536 50.8409 80.0778 50.8409C79.7511 50.8409 79.4457 50.9279 79.1616 51.1019C78.881 51.2759 78.6538 51.5174 78.4798 51.8263C78.3093 52.1317 78.2241 52.4851 78.2241 52.8864V58H76.967ZM93.3279 58.1705C92.5893 58.1705 91.9412 57.9947 91.3837 57.6431C90.8297 57.2915 90.3965 56.7997 90.084 56.1676C89.775 55.5355 89.6206 54.7969 89.6206 53.9517C89.6206 53.0994 89.775 52.3555 90.084 51.7198C90.3965 51.0842 90.8297 50.5906 91.3837 50.239C91.9412 49.8874 92.5893 49.7116 93.3279 49.7116C94.0666 49.7116 94.7129 49.8874 95.2669 50.239C95.8244 50.5906 96.2576 51.0842 96.5666 51.7198C96.8791 52.3555 97.0353 53.0994 97.0353 53.9517C97.0353 54.7969 96.8791 55.5355 96.5666 56.1676C96.2576 56.7997 95.8244 57.2915 95.2669 57.6431C94.7129 57.9947 94.0666 58.1705 93.3279 58.1705ZM93.3279 57.0412C93.889 57.0412 94.3507 56.8974 94.7129 56.6097C95.0751 56.3221 95.3432 55.9439 95.5172 55.4751C95.6912 55.0064 95.7782 54.4986 95.7782 53.9517C95.7782 53.4048 95.6912 52.8952 95.5172 52.4229C95.3432 51.9506 95.0751 51.5689 94.7129 51.2777C94.3507 50.9865 93.889 50.8409 93.3279 50.8409C92.7669 50.8409 92.3052 50.9865 91.943 51.2777C91.5808 51.5689 91.3127 51.9506 91.1387 52.4229C90.9647 52.8952 90.8777 53.4048 90.8777 53.9517C90.8777 54.4986 90.9647 55.0064 91.1387 55.4751C91.3127 55.9439 91.5808 56.3221 91.943 56.6097C92.3052 56.8974 92.7669 57.0412 93.3279 57.0412ZM92.7527 48.7102L94.0524 46.2386H95.5225L93.8606 48.7102H92.7527ZM105.352 49.8182L102.326 58H101.048L98.0221 49.8182H99.3857L101.644 56.3381H101.729L103.988 49.8182H105.352ZM110.148 58.1705C109.36 58.1705 108.68 57.9964 108.108 57.6484C107.54 57.2969 107.101 56.8068 106.793 56.1783C106.487 55.5462 106.334 54.8111 106.334 53.973C106.334 53.1349 106.487 52.3963 106.793 51.7571C107.101 51.1143 107.531 50.6136 108.082 50.255C108.636 49.8928 109.282 49.7116 110.021 49.7116C110.447 49.7116 110.867 49.7827 111.283 49.9247C111.698 50.0668 112.077 50.2976 112.418 50.6172C112.758 50.9332 113.03 51.3523 113.233 51.8743C113.435 52.3963 113.536 53.0391 113.536 53.8026V54.3352H107.229V53.2486H112.258C112.258 52.7869 112.165 52.375 111.981 52.0128C111.8 51.6506 111.54 51.3647 111.203 51.1552C110.869 50.9457 110.475 50.8409 110.021 50.8409C109.52 50.8409 109.087 50.9652 108.721 51.2138C108.359 51.4588 108.08 51.7784 107.884 52.1726C107.689 52.5668 107.592 52.9893 107.592 53.4403V54.1648C107.592 54.7827 107.698 55.3065 107.911 55.7362C108.128 56.1623 108.428 56.4872 108.811 56.7109C109.195 56.9311 109.641 57.0412 110.148 57.0412C110.479 57.0412 110.777 56.995 111.043 56.9027C111.313 56.8068 111.546 56.6648 111.741 56.4766C111.936 56.2848 112.087 56.0469 112.194 55.7628L113.408 56.1037C113.28 56.5156 113.066 56.8778 112.764 57.1903C112.462 57.4993 112.089 57.7408 111.645 57.9148C111.201 58.0852 110.702 58.1705 110.148 58.1705ZM115.448 58V49.8182H116.706V58H115.448ZM116.088 48.4545C115.843 48.4545 115.631 48.3711 115.454 48.2042C115.28 48.0373 115.193 47.8366 115.193 47.6023C115.193 47.3679 115.28 47.1673 115.454 47.0004C115.631 46.8335 115.843 46.75 116.088 46.75C116.333 46.75 116.542 46.8335 116.716 47.0004C116.894 47.1673 116.983 47.3679 116.983 47.6023C116.983 47.8366 116.894 48.0373 116.716 48.2042C116.542 48.3711 116.333 48.4545 116.088 48.4545ZM124.803 51.6506L123.674 51.9702C123.603 51.782 123.498 51.5991 123.36 51.4215C123.225 51.2404 123.04 51.0913 122.806 50.9741C122.572 50.8569 122.271 50.7983 121.906 50.7983C121.405 50.7983 120.988 50.9137 120.654 51.1445C120.324 51.3718 120.159 51.6612 120.159 52.0128C120.159 52.3253 120.272 52.5721 120.499 52.7532C120.727 52.9343 121.082 53.0852 121.565 53.206L122.779 53.5043C123.511 53.6818 124.056 53.9535 124.415 54.3192C124.773 54.6815 124.953 55.1484 124.953 55.7202C124.953 56.1889 124.818 56.608 124.548 56.9773C124.281 57.3466 123.909 57.6378 123.429 57.8509C122.95 58.0639 122.392 58.1705 121.757 58.1705C120.922 58.1705 120.231 57.9893 119.684 57.6271C119.138 57.2649 118.791 56.7358 118.646 56.0398L119.839 55.7415C119.953 56.1818 120.167 56.5121 120.483 56.7322C120.803 56.9524 121.22 57.0625 121.735 57.0625C122.321 57.0625 122.786 56.9382 123.131 56.6896C123.479 56.4375 123.653 56.1357 123.653 55.7841C123.653 55.5 123.553 55.2621 123.355 55.0703C123.156 54.875 122.85 54.7294 122.438 54.6335L121.075 54.3139C120.325 54.1364 119.775 53.8612 119.423 53.4883C119.075 53.1119 118.901 52.6413 118.901 52.0767C118.901 51.6151 119.031 51.2067 119.29 50.8516C119.553 50.4964 119.91 50.2177 120.361 50.0153C120.816 49.8129 121.33 49.7116 121.906 49.7116C122.715 49.7116 123.351 49.8892 123.813 50.2443C124.278 50.5994 124.608 51.0682 124.803 51.6506Z" fill="#1E3146"/>
<circle cx="31.3808" cy="139.834" r="2.38075" fill="#763EBD"/>
<path d="M38.3409 135.177L40.9111 142.465H41.0125L43.5826 135.177H44.6817L41.5029 143.834H40.4207L37.2419 135.177H38.3409ZM48.0127 143.969C47.3871 143.969 46.8474 143.831 46.3937 143.555C45.9428 143.276 45.5948 142.887 45.3496 142.389C45.1072 141.887 44.9861 141.304 44.9861 140.638C44.9861 139.973 45.1072 139.387 45.3496 138.88C45.5948 138.37 45.9358 137.973 46.3726 137.688C46.8122 137.4 47.3251 137.257 47.9113 137.257C48.2495 137.257 48.5834 137.313 48.9131 137.426C49.2428 137.539 49.543 137.722 49.8135 137.975C50.0841 138.226 50.2996 138.559 50.4603 138.973C50.6209 139.387 50.7012 139.897 50.7012 140.503V140.926H45.6962V140.064H49.6867C49.6867 139.697 49.6134 139.37 49.4669 139.083C49.3232 138.795 49.1174 138.569 48.8497 138.402C48.5848 138.236 48.272 138.153 47.9113 138.153C47.5139 138.153 47.1701 138.252 46.8798 138.449C46.5924 138.643 46.3712 138.897 46.2162 139.21C46.0612 139.522 45.9837 139.858 45.9837 140.216V140.791C45.9837 141.281 46.0682 141.697 46.2373 142.038C46.4092 142.376 46.6473 142.634 46.9517 142.811C47.2561 142.986 47.6097 143.073 48.0127 143.073C48.2748 143.073 48.5115 143.037 48.7229 142.963C48.9371 142.887 49.1217 142.775 49.2767 142.625C49.4317 142.473 49.5514 142.284 49.636 142.059L50.5998 142.329C50.4983 142.656 50.3278 142.944 50.0883 143.192C49.8487 143.437 49.5528 143.629 49.2006 143.767C48.8483 143.902 48.4524 143.969 48.0127 143.969ZM53.2164 139.928V143.834H52.2188V137.341H53.1826V138.356H53.2671C53.4193 138.026 53.6504 137.761 53.9604 137.561C54.2704 137.358 54.6706 137.257 55.1609 137.257C55.6005 137.257 55.9852 137.347 56.3149 137.527C56.6446 137.705 56.9011 137.975 57.0843 138.339C57.2675 138.7 57.359 139.156 57.359 139.708V143.834H56.3614V139.776C56.3614 139.266 56.229 138.869 55.9641 138.584C55.6992 138.297 55.3356 138.153 54.8735 138.153C54.555 138.153 54.2704 138.222 54.0196 138.36C53.7716 138.498 53.5757 138.7 53.432 138.965C53.2883 139.229 53.2164 139.551 53.2164 139.928ZM61.6338 143.969C61.0927 143.969 60.615 143.833 60.2008 143.559C59.7865 143.283 59.4624 142.894 59.2285 142.393C58.9946 141.888 58.8777 141.292 58.8777 140.605C58.8777 139.923 58.9946 139.331 59.2285 138.829C59.4624 138.328 59.7879 137.94 60.205 137.667C60.6221 137.393 61.104 137.257 61.6507 137.257C62.0734 137.257 62.4074 137.327 62.6525 137.468C62.9005 137.606 63.0893 137.764 63.219 137.942C63.3514 138.116 63.4543 138.26 63.5276 138.373H63.6121V135.177H64.6097V143.834H63.6459V142.837H63.5276C63.4543 142.955 63.35 143.104 63.2148 143.285C63.0795 143.462 62.8864 143.621 62.6356 143.762C62.3848 143.9 62.0509 143.969 61.6338 143.969ZM61.7691 143.073C62.1692 143.073 62.5074 142.969 62.7836 142.761C63.0598 142.549 63.2697 142.257 63.4134 141.885C63.5572 141.511 63.629 141.078 63.629 140.588C63.629 140.103 63.5586 139.679 63.4177 139.315C63.2768 138.949 63.0682 138.664 62.792 138.461C62.5159 138.256 62.1749 138.153 61.7691 138.153C61.3463 138.153 60.9941 138.261 60.7123 138.478C60.4333 138.693 60.2233 138.984 60.0824 139.353C59.9443 139.72 59.8753 140.131 59.8753 140.588C59.8753 141.05 59.9457 141.47 60.0866 141.847C60.2304 142.222 60.4417 142.521 60.7207 142.744C61.0025 142.963 61.352 143.073 61.7691 143.073ZM68.4861 143.986C68.0746 143.986 67.7012 143.909 67.3658 143.754C67.0305 143.596 66.7642 143.369 66.5669 143.073C66.3696 142.775 66.271 142.414 66.271 141.991C66.271 141.619 66.3443 141.318 66.4908 141.087C66.6374 140.853 66.8332 140.669 67.0784 140.537C67.3236 140.405 67.5941 140.306 67.89 140.241C68.1887 140.173 68.4889 140.12 68.7904 140.08C69.1849 140.03 69.5048 139.992 69.75 139.966C69.998 139.938 70.1783 139.892 70.2911 139.827C70.4066 139.762 70.4644 139.649 70.4644 139.489V139.455C70.4644 139.038 70.3502 138.714 70.122 138.483C69.8965 138.252 69.5541 138.136 69.0948 138.136C68.6185 138.136 68.2451 138.24 67.9746 138.449C67.704 138.657 67.5138 138.88 67.4039 139.117L66.457 138.779C66.6261 138.384 66.8515 138.077 67.1334 137.857C67.418 137.634 67.728 137.479 68.0633 137.392C68.4015 137.302 68.734 137.257 69.061 137.257C69.2695 137.257 69.509 137.282 69.7796 137.333C70.0529 137.381 70.3164 137.481 70.5701 137.633C70.8265 137.785 71.0393 138.015 71.2084 138.322C71.3774 138.629 71.462 139.041 71.462 139.556V143.834H70.4644V142.955H70.4137C70.346 143.096 70.2333 143.247 70.0755 143.407C69.9177 143.568 69.7077 143.705 69.4456 143.817C69.1835 143.93 68.8637 143.986 68.4861 143.986ZM68.6382 143.09C69.0328 143.09 69.3653 143.013 69.6358 142.858C69.9092 142.703 70.1149 142.503 70.253 142.257C70.3939 142.012 70.4644 141.754 70.4644 141.484V140.571C70.4221 140.622 70.3291 140.668 70.1854 140.71C70.0445 140.75 69.881 140.785 69.695 140.816C69.5119 140.844 69.3329 140.87 69.1582 140.892C68.9863 140.912 68.8468 140.929 68.7397 140.943C68.4804 140.977 68.2381 141.032 68.0126 141.108C67.79 141.181 67.6096 141.292 67.4715 141.442C67.3363 141.588 67.2686 141.788 67.2686 142.042C67.2686 142.389 67.3968 142.651 67.6533 142.828C67.9126 143.003 68.2409 143.09 68.6382 143.09Z" fill="#1E3146"/>
<circle cx="84.0448" cy="139.834" r="2.38075" fill="#EDEAFF"/>
<path d="M91.005 143.834H89.9059L93.0848 135.177H94.1669L97.3458 143.834H96.2467L93.6597 136.547H93.592L91.005 143.834ZM91.4108 140.452H95.8409V141.382H91.4108V140.452ZM99.5566 135.177V143.834H98.559V135.177H99.5566ZM105.476 141.18V137.341H106.473V143.834H105.476V142.735H105.408C105.256 143.065 105.019 143.345 104.698 143.576C104.377 143.805 103.971 143.919 103.48 143.919C103.075 143.919 102.714 143.83 102.398 143.652C102.083 143.472 101.835 143.202 101.654 142.841C101.474 142.477 101.384 142.019 101.384 141.467V137.341H102.381V141.399C102.381 141.873 102.514 142.25 102.779 142.532C103.046 142.814 103.387 142.955 103.802 142.955C104.05 142.955 104.302 142.892 104.558 142.765C104.818 142.638 105.035 142.443 105.209 142.181C105.387 141.919 105.476 141.585 105.476 141.18ZM110.921 146.404C110.439 146.404 110.025 146.342 109.679 146.218C109.332 146.097 109.043 145.937 108.812 145.736C108.584 145.539 108.402 145.328 108.267 145.102L109.061 144.544C109.152 144.663 109.266 144.798 109.404 144.95C109.542 145.105 109.731 145.239 109.97 145.352C110.213 145.467 110.53 145.525 110.921 145.525C111.446 145.525 111.878 145.398 112.219 145.145C112.56 144.891 112.731 144.494 112.731 143.953V142.634H112.646C112.573 142.752 112.469 142.899 112.333 143.073C112.201 143.245 112.009 143.399 111.758 143.534C111.51 143.667 111.175 143.733 110.752 143.733C110.228 143.733 109.757 143.609 109.34 143.361C108.926 143.113 108.598 142.752 108.355 142.279C108.116 141.805 107.996 141.23 107.996 140.554C107.996 139.889 108.113 139.31 108.347 138.817C108.581 138.321 108.906 137.937 109.324 137.667C109.741 137.393 110.222 137.257 110.769 137.257C111.192 137.257 111.527 137.327 111.775 137.468C112.026 137.606 112.218 137.764 112.35 137.942C112.485 138.116 112.59 138.26 112.663 138.373H112.764V137.341H113.728V144.02C113.728 144.578 113.601 145.032 113.348 145.381C113.097 145.734 112.759 145.992 112.333 146.155C111.911 146.321 111.44 146.404 110.921 146.404ZM110.888 142.837C111.288 142.837 111.626 142.745 111.902 142.562C112.178 142.379 112.388 142.115 112.532 141.771C112.676 141.428 112.748 141.016 112.748 140.537C112.748 140.069 112.677 139.656 112.536 139.298C112.395 138.941 112.187 138.66 111.911 138.457C111.634 138.254 111.293 138.153 110.888 138.153C110.465 138.153 110.113 138.26 109.831 138.474C109.552 138.688 109.342 138.976 109.201 139.337C109.063 139.697 108.994 140.097 108.994 140.537C108.994 140.988 109.064 141.387 109.205 141.733C109.349 142.077 109.56 142.348 109.839 142.545C110.121 142.739 110.47 142.837 110.888 142.837ZM119.646 141.18V137.341H120.644V143.834H119.646V142.735H119.579C119.426 143.065 119.19 143.345 118.868 143.576C118.547 143.805 118.141 143.919 117.651 143.919C117.245 143.919 116.885 143.83 116.569 143.652C116.253 143.472 116.005 143.202 115.825 142.841C115.645 142.477 115.554 142.019 115.554 141.467V137.341H116.552V141.399C116.552 141.873 116.684 142.25 116.949 142.532C117.217 142.814 117.558 142.955 117.972 142.955C118.22 142.955 118.473 142.892 118.729 142.765C118.988 142.638 119.205 142.443 119.38 142.181C119.558 141.919 119.646 141.585 119.646 141.18ZM125.193 143.969C124.568 143.969 124.028 143.831 123.574 143.555C123.124 143.276 122.775 142.887 122.53 142.389C122.288 141.887 122.167 141.304 122.167 140.638C122.167 139.973 122.288 139.387 122.53 138.88C122.775 138.37 123.116 137.973 123.553 137.688C123.993 137.4 124.506 137.257 125.092 137.257C125.43 137.257 125.764 137.313 126.094 137.426C126.424 137.539 126.724 137.722 126.994 137.975C127.265 138.226 127.48 138.559 127.641 138.973C127.802 139.387 127.882 139.897 127.882 140.503V140.926H122.877V140.064H126.867C126.867 139.697 126.794 139.37 126.648 139.083C126.504 138.795 126.298 138.569 126.03 138.402C125.766 138.236 125.453 138.153 125.092 138.153C124.695 138.153 124.351 138.252 124.061 138.449C123.773 138.643 123.552 138.897 123.397 139.21C123.242 139.522 123.164 139.858 123.164 140.216V140.791C123.164 141.281 123.249 141.697 123.418 142.038C123.59 142.376 123.828 142.634 124.132 142.811C124.437 142.986 124.79 143.073 125.193 143.073C125.456 143.073 125.692 143.037 125.904 142.963C126.118 142.887 126.302 142.775 126.457 142.625C126.612 142.473 126.732 142.284 126.817 142.059L127.78 142.329C127.679 142.656 127.509 142.944 127.269 143.192C127.029 143.437 126.734 143.629 126.381 143.767C126.029 143.902 125.633 143.969 125.193 143.969ZM130.397 135.177V143.834H129.399V135.177H130.397Z" fill="#1E3146"/>
<circle cx="142.713" cy="139.834" r="2.38075" fill="#E772FF"/>
<path d="M156.284 137.882H155.236C155.174 137.581 155.065 137.316 154.91 137.088C154.758 136.859 154.572 136.668 154.352 136.513C154.135 136.355 153.895 136.237 153.63 136.158C153.365 136.079 153.089 136.039 152.801 136.039C152.277 136.039 151.802 136.172 151.377 136.437C150.954 136.702 150.617 137.092 150.366 137.608C150.118 138.123 149.994 138.756 149.994 139.506C149.994 140.255 150.118 140.888 150.366 141.404C150.617 141.919 150.954 142.31 151.377 142.575C151.802 142.839 152.277 142.972 152.801 142.972C153.089 142.972 153.365 142.932 153.63 142.854C153.895 142.775 154.135 142.658 154.352 142.503C154.572 142.345 154.758 142.152 154.91 141.924C155.065 141.692 155.174 141.428 155.236 141.129H156.284C156.205 141.571 156.062 141.967 155.853 142.317C155.645 142.666 155.385 142.963 155.075 143.209C154.765 143.451 154.417 143.636 154.031 143.762C153.648 143.889 153.238 143.953 152.801 143.953C152.063 143.953 151.406 143.772 150.831 143.412C150.256 143.051 149.804 142.538 149.474 141.873C149.145 141.208 148.98 140.419 148.98 139.506C148.98 138.593 149.145 137.803 149.474 137.138C149.804 136.473 150.256 135.96 150.831 135.6C151.406 135.239 152.063 135.059 152.801 135.059C153.238 135.059 153.648 135.122 154.031 135.249C154.417 135.376 154.765 135.562 155.075 135.807C155.385 136.049 155.645 136.345 155.853 136.695C156.062 137.041 156.205 137.437 156.284 137.882ZM160.481 143.969C159.895 143.969 159.38 143.83 158.938 143.551C158.498 143.272 158.154 142.882 157.906 142.38C157.661 141.878 157.539 141.292 157.539 140.622C157.539 139.945 157.661 139.355 157.906 138.85C158.154 138.346 158.498 137.954 158.938 137.675C159.38 137.396 159.895 137.257 160.481 137.257C161.067 137.257 161.58 137.396 162.02 137.675C162.462 137.954 162.806 138.346 163.051 138.85C163.299 139.355 163.423 139.945 163.423 140.622C163.423 141.292 163.299 141.878 163.051 142.38C162.806 142.882 162.462 143.272 162.02 143.551C161.58 143.83 161.067 143.969 160.481 143.969ZM160.481 143.073C160.926 143.073 161.292 142.959 161.58 142.731C161.867 142.503 162.08 142.203 162.218 141.831C162.356 141.459 162.425 141.056 162.425 140.622C162.425 140.188 162.356 139.783 162.218 139.408C162.08 139.034 161.867 138.731 161.58 138.5C161.292 138.268 160.926 138.153 160.481 138.153C160.036 138.153 159.669 138.268 159.382 138.5C159.094 138.731 158.882 139.034 158.743 139.408C158.605 139.783 158.536 140.188 158.536 140.622C158.536 141.056 158.605 141.459 158.743 141.831C158.882 142.203 159.094 142.503 159.382 142.731C159.669 142.959 160.036 143.073 160.481 143.073ZM165.943 139.928V143.834H164.946V137.341H165.91V138.356H165.994C166.146 138.026 166.377 137.761 166.687 137.561C166.997 137.358 167.398 137.257 167.888 137.257C168.328 137.257 168.712 137.347 169.042 137.527C169.372 137.705 169.628 137.975 169.811 138.339C169.994 138.7 170.086 139.156 170.086 139.708V143.834H169.088V139.776C169.088 139.266 168.956 138.869 168.691 138.584C168.426 138.297 168.063 138.153 167.6 138.153C167.282 138.153 166.997 138.222 166.747 138.36C166.499 138.498 166.303 138.7 166.159 138.965C166.015 139.229 165.943 139.551 165.943 139.928ZM174.53 146.404C174.048 146.404 173.634 146.342 173.287 146.218C172.94 146.097 172.652 145.937 172.421 145.736C172.192 145.539 172.01 145.328 171.875 145.102L172.67 144.544C172.76 144.663 172.874 144.798 173.012 144.95C173.15 145.105 173.339 145.239 173.579 145.352C173.821 145.467 174.138 145.525 174.53 145.525C175.054 145.525 175.487 145.398 175.828 145.145C176.169 144.891 176.339 144.494 176.339 143.953V142.634H176.255C176.181 142.752 176.077 142.899 175.942 143.073C175.809 143.245 175.618 143.399 175.367 143.534C175.119 143.667 174.784 143.733 174.361 143.733C173.837 143.733 173.366 143.609 172.949 143.361C172.535 143.113 172.206 142.752 171.964 142.279C171.724 141.805 171.605 141.23 171.605 140.554C171.605 139.889 171.722 139.31 171.956 138.817C172.189 138.321 172.515 137.937 172.932 137.667C173.349 137.393 173.831 137.257 174.378 137.257C174.8 137.257 175.136 137.327 175.384 137.468C175.635 137.606 175.826 137.764 175.959 137.942C176.094 138.116 176.198 138.26 176.271 138.373H176.373V137.341H177.337V144.02C177.337 144.578 177.21 145.032 176.956 145.381C176.705 145.734 176.367 145.992 175.942 146.155C175.519 146.321 175.048 146.404 174.53 146.404ZM174.496 142.837C174.896 142.837 175.234 142.745 175.511 142.562C175.787 142.379 175.997 142.115 176.14 141.771C176.284 141.428 176.356 141.016 176.356 140.537C176.356 140.069 176.286 139.656 176.145 139.298C176.004 138.941 175.795 138.66 175.519 138.457C175.243 138.254 174.902 138.153 174.496 138.153C174.073 138.153 173.721 138.26 173.439 138.474C173.16 138.688 172.95 138.976 172.809 139.337C172.671 139.697 172.602 140.097 172.602 140.537C172.602 140.988 172.673 141.387 172.814 141.733C172.957 142.077 173.169 142.348 173.448 142.545C173.73 142.739 174.079 142.837 174.496 142.837ZM181.885 143.969C181.26 143.969 180.72 143.831 180.266 143.555C179.815 143.276 179.467 142.887 179.222 142.389C178.98 141.887 178.859 141.304 178.859 140.638C178.859 139.973 178.98 139.387 179.222 138.88C179.467 138.37 179.808 137.973 180.245 137.688C180.685 137.4 181.198 137.257 181.784 137.257C182.122 137.257 182.456 137.313 182.786 137.426C183.115 137.539 183.415 137.722 183.686 137.975C183.957 138.226 184.172 138.559 184.333 138.973C184.493 139.387 184.574 139.897 184.574 140.503V140.926H179.569V140.064H183.559C183.559 139.697 183.486 139.37 183.339 139.083C183.196 138.795 182.99 138.569 182.722 138.402C182.457 138.236 182.144 138.153 181.784 138.153C181.386 138.153 181.043 138.252 180.752 138.449C180.465 138.643 180.244 138.897 180.089 139.21C179.934 139.522 179.856 139.858 179.856 140.216V140.791C179.856 141.281 179.941 141.697 180.11 142.038C180.282 142.376 180.52 142.634 180.824 142.811C181.129 142.986 181.482 143.073 181.885 143.073C182.147 143.073 182.384 143.037 182.595 142.963C182.81 142.887 182.994 142.775 183.149 142.625C183.304 142.473 183.424 142.284 183.508 142.059L184.472 142.329C184.371 142.656 184.2 142.944 183.961 143.192C183.721 143.437 183.425 143.629 183.073 143.767C182.721 143.902 182.325 143.969 181.885 143.969ZM187.089 135.177V143.834H186.091V135.177H187.089ZM190.827 143.986C190.415 143.986 190.042 143.909 189.707 143.754C189.371 143.596 189.105 143.369 188.908 143.073C188.71 142.775 188.612 142.414 188.612 141.991C188.612 141.619 188.685 141.318 188.832 141.087C188.978 140.853 189.174 140.669 189.419 140.537C189.664 140.405 189.935 140.306 190.231 140.241C190.529 140.173 190.83 140.12 191.131 140.08C191.526 140.03 191.845 139.992 192.091 139.966C192.339 139.938 192.519 139.892 192.632 139.827C192.747 139.762 192.805 139.649 192.805 139.489V139.455C192.805 139.038 192.691 138.714 192.463 138.483C192.237 138.252 191.895 138.136 191.435 138.136C190.959 138.136 190.586 138.24 190.315 138.449C190.045 138.657 189.854 138.88 189.745 139.117L188.798 138.779C188.967 138.384 189.192 138.077 189.474 137.857C189.759 137.634 190.069 137.479 190.404 137.392C190.742 137.302 191.075 137.257 191.402 137.257C191.61 137.257 191.85 137.282 192.12 137.333C192.394 137.381 192.657 137.481 192.911 137.633C193.167 137.785 193.38 138.015 193.549 138.322C193.718 138.629 193.803 139.041 193.803 139.556V143.834H192.805V142.955H192.754C192.687 143.096 192.574 143.247 192.416 143.407C192.258 143.568 192.048 143.705 191.786 143.817C191.524 143.93 191.204 143.986 190.827 143.986ZM190.979 143.09C191.373 143.09 191.706 143.013 191.977 142.858C192.25 142.703 192.456 142.503 192.594 142.257C192.735 142.012 192.805 141.754 192.805 141.484V140.571C192.763 140.622 192.67 140.668 192.526 140.71C192.385 140.75 192.222 140.785 192.036 140.816C191.853 140.844 191.674 140.87 191.499 140.892C191.327 140.912 191.187 140.929 191.08 140.943C190.821 140.977 190.579 141.032 190.353 141.108C190.131 141.181 189.95 141.292 189.812 141.442C189.677 141.588 189.609 141.788 189.609 142.042C189.609 142.389 189.738 142.651 189.994 142.828C190.253 143.003 190.582 143.09 190.979 143.09ZM198.075 143.969C197.534 143.969 197.057 143.833 196.642 143.559C196.228 143.283 195.904 142.894 195.67 142.393C195.436 141.888 195.319 141.292 195.319 140.605C195.319 139.923 195.436 139.331 195.67 138.829C195.904 138.328 196.229 137.94 196.647 137.667C197.064 137.393 197.545 137.257 198.092 137.257C198.515 137.257 198.849 137.327 199.094 137.468C199.342 137.606 199.531 137.764 199.661 137.942C199.793 138.116 199.896 138.26 199.969 138.373H200.054V135.177H201.051V143.834H200.087V142.837H199.969C199.896 142.955 199.792 143.104 199.656 143.285C199.521 143.462 199.328 143.621 199.077 143.762C198.826 143.9 198.492 143.969 198.075 143.969ZM198.211 143.073C198.611 143.073 198.949 142.969 199.225 142.761C199.501 142.549 199.711 142.257 199.855 141.885C199.999 141.511 200.071 141.078 200.071 140.588C200.071 140.103 200 139.679 199.859 139.315C199.718 138.949 199.51 138.664 199.234 138.461C198.957 138.256 198.616 138.153 198.211 138.153C197.788 138.153 197.436 138.261 197.154 138.478C196.875 138.693 196.665 138.984 196.524 139.353C196.386 139.72 196.317 140.131 196.317 140.588C196.317 141.05 196.387 141.47 196.528 141.847C196.672 142.222 196.883 142.521 197.162 142.744C197.444 142.963 197.793 143.073 198.211 143.073ZM205.655 143.969C205.068 143.969 204.554 143.83 204.112 143.551C203.672 143.272 203.328 142.882 203.08 142.38C202.835 141.878 202.713 141.292 202.713 140.622C202.713 139.945 202.835 139.355 203.08 138.85C203.328 138.346 203.672 137.954 204.112 137.675C204.554 137.396 205.068 137.257 205.655 137.257C206.241 137.257 206.754 137.396 207.193 137.675C207.636 137.954 207.98 138.346 208.225 138.85C208.473 139.355 208.597 139.945 208.597 140.622C208.597 141.292 208.473 141.878 208.225 142.38C207.98 142.882 207.636 143.272 207.193 143.551C206.754 143.83 206.241 143.969 205.655 143.969ZM205.655 143.073C206.1 143.073 206.466 142.959 206.754 142.731C207.041 142.503 207.254 142.203 207.392 141.831C207.53 141.459 207.599 141.056 207.599 140.622C207.599 140.188 207.53 139.783 207.392 139.408C207.254 139.034 207.041 138.731 206.754 138.5C206.466 138.268 206.1 138.153 205.655 138.153C205.209 138.153 204.843 138.268 204.556 138.5C204.268 138.731 204.055 139.034 203.917 139.408C203.779 139.783 203.71 140.188 203.71 140.622C203.71 141.056 203.779 141.459 203.917 141.831C204.055 142.203 204.268 142.503 204.556 142.731C204.843 142.959 205.209 143.073 205.655 143.073Z" fill="#1E3146"/>
<path d="M31.4456 106.478V100.301L46.9345 75.899H52.2606V84.4497H49.1084L39.3441 99.9023V100.192H61.3546V106.478H31.4456ZM49.2534 113V104.594L49.3983 101.859V75.899H56.7533V113H49.2534ZM80.2946 113.507C77.5893 113.507 75.1799 113.042 73.0664 112.112C70.965 111.17 69.3044 109.878 68.0846 108.236C66.8769 106.581 66.2549 104.673 66.2187 102.511H74.1171C74.1655 103.417 74.4613 104.214 75.0048 104.902C75.5604 105.579 76.2971 106.104 77.2149 106.478C78.1328 106.853 79.1654 107.04 80.3127 107.04C81.5084 107.04 82.5651 106.829 83.483 106.406C84.4008 105.983 85.1194 105.397 85.6387 104.649C86.1581 103.9 86.4177 103.036 86.4177 102.058C86.4177 101.068 86.1399 100.192 85.5844 99.4313C85.0409 98.6584 84.2559 98.0545 83.2293 97.6198C82.2149 97.185 81.0072 96.9676 79.6062 96.9676H76.1461V91.2068H79.6062C80.7898 91.2068 81.8344 91.0015 82.7402 90.5909C83.6581 90.1803 84.3706 89.6126 84.8779 88.888C85.3851 88.1513 85.6387 87.2938 85.6387 86.3156C85.6387 85.3856 85.4153 84.5704 84.9685 83.87C84.5337 83.1574 83.9177 82.6019 83.1207 82.2033C82.3356 81.8048 81.4178 81.6055 80.3671 81.6055C79.3043 81.6055 78.3321 81.7987 77.4504 82.1852C76.5688 82.5596 75.8623 83.097 75.3309 83.7975C74.7995 84.498 74.5157 85.3192 74.4795 86.2612H66.9614C66.9977 84.1236 67.6076 82.2395 68.7911 80.6091C69.9747 78.9787 71.5689 77.7046 73.5737 76.7867C75.5906 75.8568 77.8671 75.3918 80.4033 75.3918C82.9636 75.3918 85.204 75.8568 87.1242 76.7867C89.0445 77.7167 90.536 78.9727 91.5988 80.5548C92.6737 82.1248 93.2051 83.8881 93.193 85.8446C93.2051 87.9218 92.5589 89.6549 91.2546 91.0438C89.9623 92.4326 88.2776 93.3143 86.2003 93.6887V93.9785C88.9298 94.3288 91.007 95.2768 92.4321 96.8227C93.8693 98.3565 94.5818 100.277 94.5698 102.583C94.5818 104.697 93.972 106.575 92.7401 108.217C91.5203 109.86 89.8355 111.152 87.6858 112.094C85.5361 113.036 83.0723 113.507 80.2946 113.507Z" fill="#1E3146"/>
</g>
<defs>
<clipPath id="clip0_17_9265">
<rect width="360" height="193" fill="white"/>
</clipPath>
</defs>
</svg>
