<svg width="360" height="207" viewBox="0 0 360 207" fill="none" xmlns="http://www.w3.org/2000/svg">
<g clip-path="url(#clip0_17_9280)">
<mask id="mask0_17_9280" style="mask-type:luminance" maskUnits="userSpaceOnUse" x="0" y="0" width="360" height="207">
<path d="M360 0H0V207H360V0Z" fill="white"/>
</mask>
<g mask="url(#mask0_17_9280)">
<path d="M360 0H0V207H360V0Z" fill="white"/>
<mask id="mask1_17_9280" style="mask-type:alpha" maskUnits="userSpaceOnUse" x="0" y="131" width="362" height="75">
<path d="M0 131H362V206H0V131Z" fill="#DCDCDC"/>
</mask>
<g mask="url(#mask1_17_9280)">
<path d="M42.5508 158.791C37.7704 193.811 10.6815 176.54 -1.00391 179.278V207.011H366.023V168.47C353.276 169.853 338.758 159.823 333.092 154.635C311.846 135.266 283.163 150.023 271.478 159.823C230.26 193.373 196.939 173.802 185.431 159.823C172.618 144.259 158.696 153.338 154.624 158.958C148.675 167.951 134.794 175.099 128.597 177.549C81.0064 195.534 62.0265 173.202 58.4854 153.17C53.705 138.903 43.082 145.821 42.5508 158.791Z" fill="url(#paint0_linear_17_9280)" stroke="#763EBD" stroke-width="2"/>
</g>
</g>
<path opacity="0.67" d="M24.7685 23.0909L28.0071 32.2741H28.1349L31.3736 23.0909H32.7585L28.7528 34H27.3892L23.3835 23.0909H24.7685ZM34.2873 34V25.8182H35.5444V34H34.2873ZM34.9265 24.4545C34.6815 24.4545 34.4702 24.3711 34.2926 24.2042C34.1186 24.0373 34.0316 23.8366 34.0316 23.6023C34.0316 23.3679 34.1186 23.1673 34.2926 23.0004C34.4702 22.8335 34.6815 22.75 34.9265 22.75C35.1715 22.75 35.381 22.8335 35.555 23.0004C35.7326 23.1673 35.8214 23.3679 35.8214 23.6023C35.8214 23.8366 35.7326 24.0373 35.555 24.2042C35.381 24.3711 35.1715 24.4545 34.9265 24.4545ZM43.6423 27.6506L42.5131 27.9702C42.442 27.782 42.3373 27.5991 42.1988 27.4215C42.0638 27.2404 41.8792 27.0913 41.6448 26.9741C41.4104 26.8569 41.1104 26.7983 40.7446 26.7983C40.2439 26.7983 39.8266 26.9137 39.4928 27.1445C39.1626 27.3718 38.9974 27.6612 38.9974 28.0128C38.9974 28.3253 39.1111 28.5721 39.3383 28.7532C39.5656 28.9343 39.9207 29.0852 40.4037 29.206L41.6182 29.5043C42.3497 29.6818 42.8948 29.9535 43.2535 30.3192C43.6121 30.6815 43.7915 31.1484 43.7915 31.7202C43.7915 32.1889 43.6565 32.608 43.3866 32.9773C43.1203 33.3466 42.7474 33.6378 42.268 33.8509C41.7886 34.0639 41.2311 34.1705 40.5954 34.1705C39.7609 34.1705 39.0702 33.9893 38.5233 33.6271C37.9765 33.2649 37.6302 32.7358 37.4846 32.0398L38.6778 31.7415C38.7915 32.1818 39.0063 32.5121 39.3224 32.7322C39.642 32.9524 40.0592 33.0625 40.5741 33.0625C41.1601 33.0625 41.6253 32.9382 41.9697 32.6896C42.3177 32.4375 42.4917 32.1357 42.4917 31.7841C42.4917 31.5 42.3923 31.2621 42.1934 31.0703C41.9946 30.875 41.6892 30.7294 41.2773 30.6335L39.9136 30.3139C39.1643 30.1364 38.6139 29.8612 38.2623 29.4883C37.9143 29.1119 37.7403 28.6413 37.7403 28.0767C37.7403 27.6151 37.8699 27.2067 38.1292 26.8516C38.392 26.4964 38.7488 26.2177 39.1998 26.0153C39.6544 25.8129 40.1693 25.7116 40.7446 25.7116C41.5542 25.7116 42.1899 25.8892 42.6515 26.2443C43.1167 26.5994 43.447 27.0682 43.6423 27.6506ZM50.84 30.6548V25.8182H52.0971V34H50.84V32.6151H50.7548C50.563 33.0305 50.2647 33.3839 49.8599 33.6751C49.4551 33.9627 48.9437 34.1065 48.3258 34.1065C47.8145 34.1065 47.3599 33.9947 46.9622 33.771C46.5645 33.5437 46.252 33.2028 46.0247 32.7482C45.7974 32.2901 45.6838 31.7131 45.6838 31.017V25.8182H46.9409V30.9318C46.9409 31.5284 47.1078 32.0043 47.4416 32.3594C47.7789 32.7145 48.2086 32.892 48.7306 32.892C49.0431 32.892 49.361 32.8121 49.6841 32.6523C50.0108 32.4925 50.2843 32.2475 50.5044 31.9173C50.7282 31.587 50.84 31.1662 50.84 30.6548ZM56.8073 34.1918C56.2888 34.1918 55.8183 34.0941 55.3957 33.8988C54.9731 33.6999 54.6375 33.4141 54.3889 33.0412C54.1404 32.6648 54.0161 32.2102 54.0161 31.6776C54.0161 31.2088 54.1084 30.8288 54.2931 30.5376C54.4777 30.2429 54.7245 30.0121 55.0335 29.8452C55.3424 29.6783 55.6833 29.554 56.0562 29.4723C56.4326 29.3871 56.8108 29.3196 57.1908 29.2699C57.6879 29.206 58.091 29.158 58.3999 29.1261C58.7124 29.0906 58.9397 29.032 59.0818 28.9503C59.2274 28.8686 59.3002 28.7266 59.3002 28.5241V28.4815C59.3002 27.956 59.1563 27.5476 58.8687 27.2564C58.5846 26.9652 58.1531 26.8196 57.5743 26.8196C56.9742 26.8196 56.5036 26.951 56.1627 27.2138C55.8218 27.4766 55.5821 27.7571 55.4436 28.0554L54.2504 27.6293C54.4635 27.1321 54.7476 26.745 55.1027 26.468C55.4614 26.1875 55.852 25.9922 56.2746 25.8821C56.7007 25.7685 57.1198 25.7116 57.5317 25.7116C57.7945 25.7116 58.0963 25.7436 58.4372 25.8075C58.7817 25.8679 59.1137 25.994 59.4333 26.1857C59.7565 26.3775 60.0246 26.6669 60.2377 27.054C60.4507 27.4411 60.5573 27.9595 60.5573 28.6094V34H59.3002V32.892H59.2362C59.151 33.0696 59.009 33.2596 58.8101 33.462C58.6112 33.6644 58.3467 33.8366 58.0164 33.9787C57.6862 34.1207 57.2831 34.1918 56.8073 34.1918ZM56.999 33.0625C57.4962 33.0625 57.9152 32.9648 58.2561 32.7695C58.6006 32.5742 58.8598 32.3221 59.0338 32.0131C59.2114 31.7042 59.3002 31.3793 59.3002 31.0384V29.8878C59.2469 29.9517 59.1297 30.0103 58.9486 30.0636C58.771 30.1133 58.5651 30.1577 58.3307 30.1967C58.0999 30.2322 57.8744 30.2642 57.6542 30.2926C57.4376 30.3175 57.2618 30.3388 57.1269 30.3565C56.8002 30.3991 56.4948 30.4684 56.2107 30.5643C55.9301 30.6566 55.7029 30.7969 55.5289 30.9851C55.3584 31.1697 55.2732 31.4219 55.2732 31.7415C55.2732 32.1783 55.4347 32.5085 55.7579 32.7322C56.0846 32.9524 56.4983 33.0625 56.999 33.0625ZM64.1088 23.0909V34H62.8517V23.0909H64.1088ZM66.4113 34V25.8182H67.6684V34H66.4113ZM67.0505 24.4545C66.8055 24.4545 66.5942 24.3711 66.4166 24.2042C66.2426 24.0373 66.1556 23.8366 66.1556 23.6023C66.1556 23.3679 66.2426 23.1673 66.4166 23.0004C66.5942 22.8335 66.8055 22.75 67.0505 22.75C67.2955 22.75 67.5051 22.8335 67.6791 23.0004C67.8566 23.1673 67.9454 23.3679 67.9454 23.6023C67.9454 23.8366 67.8566 24.0373 67.6791 24.2042C67.5051 24.3711 67.2955 24.4545 67.0505 24.4545ZM69.7365 34V33.0412L74.3814 27.0753V26.9901H69.8857V25.8182H76.0007V26.8196L71.4837 32.7429V32.8281H76.1499V34H69.7365ZM80.4938 34.1918C79.9753 34.1918 79.5048 34.0941 79.0822 33.8988C78.6596 33.6999 78.324 33.4141 78.0755 33.0412C77.8269 32.6648 77.7026 32.2102 77.7026 31.6776C77.7026 31.2088 77.7949 30.8288 77.9796 30.5376C78.1642 30.2429 78.411 30.0121 78.72 29.8452C79.0289 29.6783 79.3699 29.554 79.7427 29.4723C80.1191 29.3871 80.4973 29.3196 80.8773 29.2699C81.3745 29.206 81.7775 29.158 82.0865 29.1261C82.399 29.0906 82.6262 29.032 82.7683 28.9503C82.9139 28.8686 82.9867 28.7266 82.9867 28.5241V28.4815C82.9867 27.956 82.8429 27.5476 82.5552 27.2564C82.2711 26.9652 81.8397 26.8196 81.2608 26.8196C80.6607 26.8196 80.1902 26.951 79.8493 27.2138C79.5083 27.4766 79.2686 27.7571 79.1301 28.0554L77.937 27.6293C78.15 27.1321 78.4341 26.745 78.7892 26.468C79.1479 26.1875 79.5385 25.9922 79.9611 25.8821C80.3873 25.7685 80.8063 25.7116 81.2182 25.7116C81.481 25.7116 81.7828 25.7436 82.1238 25.8075C82.4682 25.8679 82.8002 25.994 83.1199 26.1857C83.443 26.3775 83.7111 26.6669 83.9242 27.054C84.1373 27.4411 84.2438 27.9595 84.2438 28.6094V34H82.9867V32.892H82.9228C82.8375 33.0696 82.6955 33.2596 82.4966 33.462C82.2978 33.6644 82.0332 33.8366 81.7029 33.9787C81.3727 34.1207 80.9696 34.1918 80.4938 34.1918ZM80.6855 33.0625C81.1827 33.0625 81.6017 32.9648 81.9426 32.7695C82.2871 32.5742 82.5463 32.3221 82.7203 32.0131C82.8979 31.7042 82.9867 31.3793 82.9867 31.0384V29.8878C82.9334 29.9517 82.8162 30.0103 82.6351 30.0636C82.4576 30.1133 82.2516 30.1577 82.0172 30.1967C81.7864 30.2322 81.5609 30.2642 81.3407 30.2926C81.1241 30.3175 80.9483 30.3388 80.8134 30.3565C80.4867 30.3991 80.1813 30.4684 79.8972 30.5643C79.6167 30.6566 79.3894 30.7969 79.2154 30.9851C79.0449 31.1697 78.9597 31.4219 78.9597 31.7415C78.9597 32.1783 79.1213 32.5085 79.4444 32.7322C79.7711 32.9524 80.1848 33.0625 80.6855 33.0625ZM89.8621 34.1705C89.0951 34.1705 88.4346 33.9893 87.8806 33.6271C87.3266 33.2649 86.9005 32.766 86.6022 32.1303C86.3039 31.4947 86.1547 30.7685 86.1547 29.9517C86.1547 29.1207 86.3074 28.3874 86.6128 27.7518C86.9218 27.1126 87.3515 26.6136 87.9019 26.255C88.4559 25.8928 89.1022 25.7116 89.8408 25.7116C90.4161 25.7116 90.9346 25.8182 91.3962 26.0312C91.8579 26.2443 92.2361 26.5426 92.5308 26.9261C92.8256 27.3097 93.0084 27.7571 93.0795 28.2685H91.8224C91.7265 27.8956 91.5134 27.5653 91.1832 27.2777C90.8564 26.9865 90.4161 26.8409 89.8621 26.8409C89.3721 26.8409 88.9424 26.9687 88.5731 27.2244C88.2073 27.4766 87.9214 27.8335 87.7155 28.2951C87.5131 28.7532 87.4118 29.2912 87.4118 29.9091C87.4118 30.5412 87.5113 31.0916 87.7101 31.5604C87.9126 32.0291 88.1966 32.3931 88.5624 32.6523C88.9317 32.9116 89.365 33.0412 89.8621 33.0412C90.1888 33.0412 90.4854 32.9844 90.7517 32.8707C91.018 32.7571 91.2435 32.5938 91.4282 32.3807C91.6128 32.1676 91.7442 31.9119 91.8224 31.6136H93.0795C93.0084 32.0966 92.8327 32.5316 92.5521 32.9187C92.2751 33.3022 91.9076 33.6076 91.4495 33.8349C90.9949 34.0586 90.4658 34.1705 89.8621 34.1705ZM89.2655 33.9574H90.3096L90.2243 34.3835C90.5013 34.4261 90.7552 34.5415 90.9861 34.7298C91.2169 34.9215 91.3323 35.2251 91.3323 35.6406C91.3323 36.0987 91.1423 36.4716 90.7623 36.7592C90.3859 37.0504 89.8302 37.196 89.0951 37.196L89.0525 36.3651C89.3827 36.3651 89.6562 36.3118 89.8728 36.2053C90.093 36.1023 90.203 35.9283 90.203 35.6832C90.203 35.4382 90.1125 35.2713 89.9314 35.1825C89.7503 35.0938 89.4573 35.0334 89.0525 35.0014L89.2655 33.9574ZM98.241 34.1705C97.5024 34.1705 96.8543 33.9947 96.2968 33.6431C95.7428 33.2915 95.3096 32.7997 94.9971 32.1676C94.6881 31.5355 94.5336 30.7969 94.5336 29.9517C94.5336 29.0994 94.6881 28.3555 94.9971 27.7198C95.3096 27.0842 95.7428 26.5906 96.2968 26.239C96.8543 25.8874 97.5024 25.7116 98.241 25.7116C98.9797 25.7116 99.626 25.8874 100.18 26.239C100.737 26.5906 101.171 27.0842 101.48 27.7198C101.792 28.3555 101.948 29.0994 101.948 29.9517C101.948 30.7969 101.792 31.5355 101.48 32.1676C101.171 32.7997 100.737 33.2915 100.18 33.6431C99.626 33.9947 98.9797 34.1705 98.241 34.1705ZM98.241 33.0412C98.8021 33.0412 99.2638 32.8974 99.626 32.6097C99.9882 32.3221 100.256 31.9439 100.43 31.4751C100.604 31.0064 100.691 30.4986 100.691 29.9517C100.691 29.4048 100.604 28.8952 100.43 28.4229C100.256 27.9506 99.9882 27.5689 99.626 27.2777C99.2638 26.9865 98.8021 26.8409 98.241 26.8409C97.68 26.8409 97.2183 26.9865 96.8561 27.2777C96.4939 27.5689 96.2258 27.9506 96.0518 28.4229C95.8778 28.8952 95.7907 29.4048 95.7907 29.9517C95.7907 30.4986 95.8778 31.0064 96.0518 31.4751C96.2258 31.9439 96.4939 32.3221 96.8561 32.6097C97.2183 32.8974 97.68 33.0412 98.241 33.0412ZM96.6004 24.8381L95.6203 24.7955C95.6203 24.2521 95.7748 23.8082 96.0837 23.4638C96.3962 23.1158 96.7815 22.9418 97.2396 22.9418C97.442 22.9418 97.6214 22.9773 97.7776 23.0483C97.9339 23.1158 98.083 23.1939 98.2251 23.2827C98.3671 23.3714 98.5127 23.4513 98.6618 23.5224C98.8145 23.5898 98.9868 23.6236 99.1785 23.6236C99.3809 23.6236 99.5514 23.5455 99.6899 23.3892C99.8319 23.2294 99.903 23.0376 99.903 22.8139L100.862 22.8991C100.862 23.4531 100.706 23.8935 100.393 24.2202C100.084 24.5469 99.7006 24.7102 99.2425 24.7102C98.9974 24.7102 98.795 24.6765 98.6352 24.609C98.4754 24.538 98.3334 24.4581 98.2091 24.3693C98.0848 24.2805 97.9534 24.2024 97.8149 24.1349C97.6764 24.0639 97.5059 24.0284 97.3035 24.0284C97.1011 24.0284 96.9324 24.1083 96.7975 24.2681C96.6661 24.4244 96.6004 24.6143 96.6004 24.8381ZM107.298 34.1705C106.509 34.1705 105.829 33.9964 105.258 33.6484C104.689 33.2969 104.251 32.8068 103.942 32.1783C103.637 31.5462 103.484 30.8111 103.484 29.973C103.484 29.1349 103.637 28.3963 103.942 27.7571C104.251 27.1143 104.681 26.6136 105.231 26.255C105.785 25.8928 106.431 25.7116 107.17 25.7116C107.596 25.7116 108.017 25.7827 108.432 25.9247C108.848 26.0668 109.226 26.2976 109.567 26.6172C109.908 26.9332 110.18 27.3523 110.382 27.8743C110.584 28.3963 110.686 29.0391 110.686 29.8026V30.3352H104.379V29.2486H109.407C109.407 28.7869 109.315 28.375 109.13 28.0128C108.949 27.6506 108.69 27.3647 108.352 27.1552C108.019 26.9457 107.624 26.8409 107.17 26.8409C106.669 26.8409 106.236 26.9652 105.87 27.2138C105.508 27.4588 105.229 27.7784 105.034 28.1726C104.839 28.5668 104.741 28.9893 104.741 29.4403V30.1648C104.741 30.7827 104.847 31.3065 105.061 31.7362C105.277 32.1623 105.577 32.4872 105.961 32.7109C106.344 32.9311 106.79 33.0412 107.298 33.0412C107.628 33.0412 107.926 32.995 108.193 32.9027C108.463 32.8068 108.695 32.6648 108.89 32.4766C109.086 32.2848 109.237 32.0469 109.343 31.7628L110.558 32.1037C110.43 32.5156 110.215 32.8778 109.913 33.1903C109.611 33.4993 109.238 33.7408 108.795 33.9148C108.351 34.0852 107.852 34.1705 107.298 34.1705ZM118.393 27.6506L117.264 27.9702C117.193 27.782 117.088 27.5991 116.95 27.4215C116.815 27.2404 116.63 27.0913 116.396 26.9741C116.161 26.8569 115.861 26.7983 115.496 26.7983C114.995 26.7983 114.578 26.9137 114.244 27.1445C113.914 27.3718 113.748 27.6612 113.748 28.0128C113.748 28.3253 113.862 28.5721 114.089 28.7532C114.317 28.9343 114.672 29.0852 115.155 29.206L116.369 29.5043C117.101 29.6818 117.646 29.9535 118.004 30.3192C118.363 30.6815 118.542 31.1484 118.542 31.7202C118.542 32.1889 118.407 32.608 118.138 32.9773C117.871 33.3466 117.498 33.6378 117.019 33.8509C116.54 34.0639 115.982 34.1705 115.346 34.1705C114.512 34.1705 113.821 33.9893 113.274 33.6271C112.727 33.2649 112.381 32.7358 112.236 32.0398L113.429 31.7415C113.542 32.1818 113.757 32.5121 114.073 32.7322C114.393 32.9524 114.81 33.0625 115.325 33.0625C115.911 33.0625 116.376 32.9382 116.721 32.6896C117.069 32.4375 117.243 32.1357 117.243 31.7841C117.243 31.5 117.143 31.2621 116.944 31.0703C116.746 30.875 116.44 30.7294 116.028 30.6335L114.665 30.3139C113.915 30.1364 113.365 29.8612 113.013 29.4883C112.665 29.1119 112.491 28.6413 112.491 28.0767C112.491 27.6151 112.621 27.2067 112.88 26.8516C113.143 26.4964 113.5 26.2177 113.951 26.0153C114.405 25.8129 114.92 25.7116 115.496 25.7116C116.305 25.7116 116.941 25.8892 117.403 26.2443C117.868 26.5994 118.198 27.0682 118.393 27.6506ZM127.743 34.1705C127.061 34.1705 126.459 33.9982 125.937 33.6538C125.415 33.3058 125.007 32.8157 124.712 32.1836C124.417 31.5479 124.27 30.7969 124.27 29.9304C124.27 29.071 124.417 28.3253 124.712 27.6932C125.007 27.0611 125.417 26.5728 125.943 26.2283C126.468 25.8839 127.075 25.7116 127.764 25.7116C128.297 25.7116 128.718 25.8004 129.027 25.978C129.339 26.152 129.577 26.3509 129.741 26.5746C129.907 26.7947 130.037 26.9759 130.129 27.1179H130.236V23.0909H131.493V34H130.278V32.7429H130.129C130.037 32.892 129.906 33.0803 129.735 33.3075C129.565 33.5312 129.321 33.7319 129.005 33.9094C128.689 34.0835 128.269 34.1705 127.743 34.1705ZM127.913 33.0412C128.418 33.0412 128.844 32.9098 129.192 32.647C129.54 32.3807 129.804 32.0131 129.986 31.5444C130.167 31.0721 130.257 30.527 130.257 29.9091C130.257 29.2983 130.168 28.7638 129.991 28.3058C129.813 27.8441 129.551 27.4854 129.203 27.2298C128.854 26.9705 128.425 26.8409 127.913 26.8409C127.381 26.8409 126.937 26.9776 126.582 27.2511C126.23 27.521 125.966 27.8885 125.788 28.3537C125.614 28.8153 125.527 29.3338 125.527 29.9091C125.527 30.4915 125.616 31.0206 125.793 31.4964C125.975 31.9687 126.241 32.3452 126.592 32.6257C126.948 32.9027 127.388 33.0412 127.913 33.0412ZM137.294 34.1705C136.555 34.1705 135.907 33.9947 135.35 33.6431C134.796 33.2915 134.362 32.7997 134.05 32.1676C133.741 31.5355 133.586 30.7969 133.586 29.9517C133.586 29.0994 133.741 28.3555 134.05 27.7198C134.362 27.0842 134.796 26.5906 135.35 26.239C135.907 25.8874 136.555 25.7116 137.294 25.7116C138.032 25.7116 138.679 25.8874 139.233 26.239C139.79 26.5906 140.223 27.0842 140.532 27.7198C140.845 28.3555 141.001 29.0994 141.001 29.9517C141.001 30.7969 140.845 31.5355 140.532 32.1676C140.223 32.7997 139.79 33.2915 139.233 33.6431C138.679 33.9947 138.032 34.1705 137.294 34.1705ZM137.294 33.0412C137.855 33.0412 138.316 32.8974 138.679 32.6097C139.041 32.3221 139.309 31.9439 139.483 31.4751C139.657 31.0064 139.744 30.4986 139.744 29.9517C139.744 29.4048 139.657 28.8952 139.483 28.4229C139.309 27.9506 139.041 27.5689 138.679 27.2777C138.316 26.9865 137.855 26.8409 137.294 26.8409C136.733 26.8409 136.271 26.9865 135.909 27.2777C135.547 27.5689 135.278 27.9506 135.104 28.4229C134.93 28.8952 134.843 29.4048 134.843 29.9517C134.843 30.4986 134.93 31.0064 135.104 31.4751C135.278 31.9439 135.547 32.3221 135.909 32.6097C136.271 32.8974 136.733 33.0412 137.294 33.0412ZM149.547 34.1918C149.028 34.1918 148.558 34.0941 148.135 33.8988C147.712 33.6999 147.377 33.4141 147.128 33.0412C146.88 32.6648 146.755 32.2102 146.755 31.6776C146.755 31.2088 146.848 30.8288 147.032 30.5376C147.217 30.2429 147.464 30.0121 147.773 29.8452C148.082 29.6783 148.423 29.554 148.795 29.4723C149.172 29.3871 149.55 29.3196 149.93 29.2699C150.427 29.206 150.83 29.158 151.139 29.1261C151.452 29.0906 151.679 29.032 151.821 28.9503C151.967 28.8686 152.039 28.7266 152.039 28.5241V28.4815C152.039 27.956 151.896 27.5476 151.608 27.2564C151.324 26.9652 150.892 26.8196 150.314 26.8196C149.713 26.8196 149.243 26.951 148.902 27.2138C148.561 27.4766 148.321 27.7571 148.183 28.0554L146.99 27.6293C147.203 27.1321 147.487 26.745 147.842 26.468C148.201 26.1875 148.591 25.9922 149.014 25.8821C149.44 25.7685 149.859 25.7116 150.271 25.7116C150.534 25.7116 150.836 25.7436 151.176 25.8075C151.521 25.8679 151.853 25.994 152.173 26.1857C152.496 26.3775 152.764 26.6669 152.977 27.054C153.19 27.4411 153.297 27.9595 153.297 28.6094V34H152.039V32.892H151.975C151.89 33.0696 151.748 33.2596 151.549 33.462C151.35 33.6644 151.086 33.8366 150.756 33.9787C150.425 34.1207 150.022 34.1918 149.547 34.1918ZM149.738 33.0625C150.235 33.0625 150.654 32.9648 150.995 32.7695C151.34 32.5742 151.599 32.3221 151.773 32.0131C151.951 31.7042 152.039 31.3793 152.039 31.0384V29.8878C151.986 29.9517 151.869 30.0103 151.688 30.0636C151.51 30.1133 151.304 30.1577 151.07 30.1967C150.839 30.2322 150.614 30.2642 150.393 30.2926C150.177 30.3175 150.001 30.3388 149.866 30.3565C149.539 30.3991 149.234 30.4684 148.95 30.5643C148.669 30.6566 148.442 30.7969 148.268 30.9851C148.098 31.1697 148.012 31.4219 148.012 31.7415C148.012 32.1783 148.174 32.5085 148.497 32.7322C148.824 32.9524 149.238 33.0625 149.738 33.0625ZM156.848 29.0781V34H155.591V25.8182H156.805V27.0966H156.912C157.104 26.6811 157.395 26.3473 157.786 26.0952C158.176 25.8395 158.68 25.7116 159.298 25.7116C159.852 25.7116 160.337 25.8253 160.753 26.0526C161.168 26.2763 161.491 26.6172 161.722 27.0753C161.953 27.5298 162.068 28.1051 162.068 28.8011V34H160.811V28.8864C160.811 28.2436 160.644 27.7429 160.31 27.3842C159.977 27.022 159.519 26.8409 158.936 26.8409C158.535 26.8409 158.176 26.9279 157.86 27.1019C157.548 27.2759 157.301 27.5298 157.12 27.8636C156.939 28.1974 156.848 28.6023 156.848 29.0781ZM169.522 30.6548V25.8182H170.779V34H169.522V32.6151H169.436C169.245 33.0305 168.946 33.3839 168.542 33.6751C168.137 33.9627 167.625 34.1065 167.007 34.1065C166.496 34.1065 166.042 33.9947 165.644 33.771C165.246 33.5437 164.934 33.2028 164.706 32.7482C164.479 32.2901 164.365 31.7131 164.365 31.017V25.8182H165.623V30.9318C165.623 31.5284 165.789 32.0043 166.123 32.3594C166.461 32.7145 166.89 32.892 167.412 32.892C167.725 32.892 168.043 32.8121 168.366 32.6523C168.692 32.4925 168.966 32.2475 169.186 31.9173C169.41 31.587 169.522 31.1662 169.522 30.6548ZM167.007 24.7102L168.307 22.2386H169.777L168.115 24.7102H167.007ZM174.338 29.0781V34H173.081V25.8182H174.296V27.0966H174.402C174.594 26.6811 174.885 26.3473 175.276 26.0952C175.666 25.8395 176.171 25.7116 176.789 25.7116C177.343 25.7116 177.827 25.8253 178.243 26.0526C178.658 26.2763 178.981 26.6172 179.212 27.0753C179.443 27.5298 179.559 28.1051 179.559 28.8011V34H178.301V28.8864C178.301 28.2436 178.134 27.7429 177.801 27.3842C177.467 27.022 177.009 26.8409 176.426 26.8409C176.025 26.8409 175.666 26.9279 175.35 27.1019C175.038 27.2759 174.791 27.5298 174.61 27.8636C174.429 28.1974 174.338 28.6023 174.338 29.0781ZM185.18 34.1705C184.412 34.1705 183.752 33.9893 183.198 33.6271C182.644 33.2649 182.218 32.766 181.92 32.1303C181.621 31.4947 181.472 30.7685 181.472 29.9517C181.472 29.1207 181.625 28.3874 181.93 27.7518C182.239 27.1126 182.669 26.6136 183.219 26.255C183.773 25.8928 184.42 25.7116 185.158 25.7116C185.733 25.7116 186.252 25.8182 186.714 26.0312C187.175 26.2443 187.553 26.5426 187.848 26.9261C188.143 27.3097 188.326 27.7571 188.397 28.2685H187.14C187.044 27.8956 186.831 27.5653 186.501 27.2777C186.174 26.9865 185.733 26.8409 185.18 26.8409C184.689 26.8409 184.26 26.9687 183.89 27.2244C183.525 27.4766 183.239 27.8335 183.033 28.2951C182.83 28.7532 182.729 29.2912 182.729 29.9091C182.729 30.5412 182.829 31.0916 183.028 31.5604C183.23 32.0291 183.514 32.3931 183.88 32.6523C184.249 32.9116 184.682 33.0412 185.18 33.0412C185.506 33.0412 185.803 32.9844 186.069 32.8707C186.335 32.7571 186.561 32.5938 186.746 32.3807C186.93 32.1676 187.062 31.9119 187.14 31.6136H188.397C188.326 32.0966 188.15 32.5316 187.869 32.9187C187.593 33.3022 187.225 33.6076 186.767 33.8349C186.312 34.0586 185.783 34.1705 185.18 34.1705ZM190.235 34V25.8182H191.492V34H190.235ZM190.874 24.4545C190.629 24.4545 190.417 24.3711 190.24 24.2042C190.066 24.0373 189.979 23.8366 189.979 23.6023C189.979 23.3679 190.066 23.1673 190.24 23.0004C190.417 22.8335 190.629 22.75 190.874 22.75C191.119 22.75 191.328 22.8335 191.502 23.0004C191.68 23.1673 191.769 23.3679 191.769 23.6023C191.769 23.8366 191.68 24.0373 191.502 24.2042C191.328 24.3711 191.119 24.4545 190.874 24.4545ZM197.118 34.1705C196.379 34.1705 195.731 33.9947 195.174 33.6431C194.62 33.2915 194.187 32.7997 193.874 32.1676C193.565 31.5355 193.411 30.7969 193.411 29.9517C193.411 29.0994 193.565 28.3555 193.874 27.7198C194.187 27.0842 194.62 26.5906 195.174 26.239C195.731 25.8874 196.379 25.7116 197.118 25.7116C197.857 25.7116 198.503 25.8874 199.057 26.239C199.614 26.5906 200.048 27.0842 200.357 27.7198C200.669 28.3555 200.825 29.0994 200.825 29.9517C200.825 30.7969 200.669 31.5355 200.357 32.1676C200.048 32.7997 199.614 33.2915 199.057 33.6431C198.503 33.9947 197.857 34.1705 197.118 34.1705ZM197.118 33.0412C197.679 33.0412 198.141 32.8974 198.503 32.6097C198.865 32.3221 199.133 31.9439 199.307 31.4751C199.481 31.0064 199.568 30.4986 199.568 29.9517C199.568 29.4048 199.481 28.8952 199.307 28.4229C199.133 27.9506 198.865 27.5689 198.503 27.2777C198.141 26.9865 197.679 26.8409 197.118 26.8409C196.557 26.8409 196.095 26.9865 195.733 27.2777C195.371 27.5689 195.103 27.9506 194.929 28.4229C194.755 28.8952 194.668 29.4048 194.668 29.9517C194.668 30.4986 194.755 31.0064 194.929 31.4751C195.103 31.9439 195.371 32.3221 195.733 32.6097C196.095 32.8974 196.557 33.0412 197.118 33.0412Z" fill="#1E3146"/>
<path d="M34.0573 81.3354C32.2683 81.3354 30.675 81.028 29.2774 80.413C27.8877 79.79 26.7896 78.9355 25.983 77.8493C25.1843 76.7552 24.773 75.4933 24.749 74.0637H29.9722C30.0042 74.6627 30.1998 75.1898 30.5592 75.6451C30.9266 76.0923 31.4138 76.4397 32.0207 76.6873C32.6277 76.9349 33.3106 77.0587 34.0693 77.0587C34.8599 77.0587 35.5588 76.9189 36.1657 76.6394C36.7727 76.3598 37.2479 75.9725 37.5913 75.4773C37.9347 74.9822 38.1064 74.4111 38.1064 73.7642C38.1064 73.1093 37.9228 72.5303 37.5554 72.0272C37.196 71.516 36.6769 71.1167 35.998 70.8292C35.3271 70.5417 34.5285 70.3979 33.6021 70.3979H31.3139V66.5884H33.6021C34.3847 66.5884 35.0756 66.4526 35.6746 66.1811C36.2815 65.9095 36.7527 65.5342 37.0882 65.055C37.4236 64.5678 37.5913 64.0008 37.5913 63.3538C37.5913 62.7389 37.4436 62.1998 37.1481 61.7366C36.8606 61.2654 36.4532 60.898 35.9261 60.6344C35.407 60.3709 34.8 60.2391 34.1052 60.2391C33.4024 60.2391 32.7595 60.3669 32.1765 60.6225C31.5935 60.87 31.1263 61.2254 30.7748 61.6887C30.4234 62.1519 30.2358 62.695 30.2118 63.3179H25.2402C25.2642 61.9043 25.6675 60.6584 26.4502 59.5802C27.2328 58.5021 28.2871 57.6595 29.6128 57.0525C30.9466 56.4375 32.452 56.1301 34.1292 56.1301C35.8223 56.1301 37.3038 56.4375 38.5737 57.0525C39.8435 57.6675 40.8298 58.4981 41.5327 59.5443C42.2435 60.5825 42.5949 61.7486 42.5869 63.0424C42.5949 64.416 42.1676 65.5621 41.305 66.4806C40.4505 67.399 39.3364 67.982 37.9627 68.2296V68.4213C39.7676 68.6529 41.1413 69.2798 42.0837 70.3021C43.0341 71.3164 43.5053 72.5862 43.4973 74.1117C43.5053 75.5093 43.102 76.7512 42.2874 77.8373C41.4807 78.9235 40.3666 79.7781 38.945 80.401C37.5234 81.024 35.8942 81.3354 34.0573 81.3354ZM49.5651 81.3115C48.7744 81.3115 48.0956 81.0319 47.5285 80.4729C46.9695 79.9059 46.6899 79.227 46.6899 78.4363C46.6899 77.6537 46.9695 76.9828 47.5285 76.4237C48.0956 75.8647 48.7744 75.5852 49.5651 75.5852C50.3318 75.5852 51.0026 75.8647 51.5777 76.4237C52.1527 76.9828 52.4402 77.6537 52.4402 78.4363C52.4402 78.9634 52.3044 79.4466 52.0329 79.8859C51.7693 80.3172 51.4219 80.6646 50.9907 80.9281C50.5594 81.1837 50.0842 81.3115 49.5651 81.3115ZM56.2108 76.6873V72.6022L66.4535 56.4655H69.9755V62.1199H67.8911L61.434 72.3387V72.5303H75.9894V76.6873H56.2108ZM67.9869 81V75.4414L68.0827 73.6325V56.4655H72.9465V81H67.9869ZM88.4064 81.3354C86.7132 81.3354 85.2038 81.024 83.878 80.401C82.5603 79.7781 81.514 78.9195 80.7393 77.8254C79.9646 76.7312 79.5613 75.4773 79.5294 74.0637H84.5609C84.6168 75.0141 85.0161 75.7848 85.7588 76.3758C86.5016 76.9668 87.3841 77.2623 88.4064 77.2623C89.221 77.2623 89.9398 77.0826 90.5627 76.7232C91.1937 76.3559 91.6848 75.8487 92.0362 75.2018C92.3956 74.5469 92.5753 73.7962 92.5753 72.9496C92.5753 72.0871 92.3916 71.3284 92.0243 70.6735C91.6649 70.0186 91.1657 69.5074 90.5268 69.1401C89.8879 68.7727 89.1571 68.585 88.3345 68.577C87.6157 68.577 86.9169 68.7248 86.238 69.0203C85.5672 69.3158 85.0441 69.7191 84.6687 70.2302L80.0565 69.4036L81.2185 56.4655H96.2172V60.7063H85.4953L84.8604 66.8519H85.0041C85.4354 66.245 86.0863 65.7418 86.9568 65.3425C87.8273 64.9432 88.8017 64.7435 89.8799 64.7435C91.3574 64.7435 92.6751 65.0909 93.8332 65.7857C94.9912 66.4806 95.9057 67.4349 96.5766 68.6489C97.2474 69.8549 97.5789 71.2445 97.5709 72.8178C97.5789 74.471 97.1955 75.9406 96.4208 77.2264C95.6541 78.5042 94.5799 79.5105 93.1983 80.2453C91.8246 80.972 90.2273 81.3354 88.4064 81.3354ZM100.817 76.6873V72.6022L111.06 56.4655H114.582V62.1199H112.498L106.041 72.3387V72.5303H120.596V76.6873H100.817ZM112.593 81V75.4414L112.689 73.6325V56.4655H117.553V81H112.593Z" fill="#1E3146"/>
<path d="M157 68.5C157 62.9772 152.523 58.5 147 58.5C141.477 58.5 137 62.9772 137 68.5C137 74.0228 141.477 78.5 147 78.5C152.523 78.5 157 74.0228 157 68.5Z" fill="#E6FFFA"/>
<path d="M150.133 72.267L150.833 71.567L144.266 65H150.233V64H142.566V71.667H143.566V65.7L150.133 72.267Z" fill="#13DEB9"/>
<path d="M171.964 53.5909V64.5H170.643V54.9759H170.58L167.916 56.7443V55.402L170.643 53.5909H171.964ZM178.66 64.6491C177.858 64.6491 177.174 64.4308 176.609 63.994C176.045 63.5536 175.613 62.9162 175.315 62.0817C175.017 61.2436 174.868 60.2315 174.868 59.0455C174.868 57.8665 175.017 56.8597 175.315 56.0252C175.617 55.1871 176.05 54.5479 176.615 54.1076C177.183 53.6637 177.865 53.4418 178.66 53.4418C179.456 53.4418 180.136 53.6637 180.7 54.1076C181.268 54.5479 181.702 55.1871 182 56.0252C182.302 56.8597 182.453 57.8665 182.453 59.0455C182.453 60.2315 182.304 61.2436 182.005 62.0817C181.707 62.9162 181.276 63.5536 180.711 63.994C180.146 64.4308 179.463 64.6491 178.66 64.6491ZM178.66 63.4773C179.456 63.4773 180.074 63.0937 180.514 62.3267C180.954 61.5597 181.174 60.4659 181.174 59.0455C181.174 58.1009 181.073 57.2965 180.871 56.6325C180.672 55.9684 180.384 55.4624 180.008 55.1143C179.635 54.7663 179.186 54.5923 178.66 54.5923C177.872 54.5923 177.256 54.9812 176.812 55.7589C176.368 56.533 176.146 57.6286 176.146 59.0455C176.146 59.9901 176.245 60.7926 176.444 61.4531C176.643 62.1136 176.929 62.6161 177.302 62.9606C177.678 63.305 178.131 63.4773 178.66 63.4773ZM190.038 62.4545V61.8793C190.038 61.4815 190.12 61.1175 190.283 60.7873C190.45 60.4535 190.691 60.1871 191.007 59.9883C191.327 59.7859 191.714 59.6847 192.169 59.6847C192.63 59.6847 193.017 59.7859 193.33 59.9883C193.642 60.1871 193.879 60.4535 194.038 60.7873C194.198 61.1175 194.278 61.4815 194.278 61.8793V62.4545C194.278 62.8523 194.196 63.218 194.033 63.5518C193.873 63.8821 193.635 64.1484 193.319 64.3509C193.007 64.5497 192.623 64.6491 192.169 64.6491C191.707 64.6491 191.318 64.5497 191.002 64.3509C190.686 64.1484 190.446 63.8821 190.283 63.5518C190.12 63.218 190.038 62.8523 190.038 62.4545ZM191.125 61.8793V62.4545C191.125 62.7848 191.203 63.0813 191.359 63.3441C191.515 63.6033 191.785 63.733 192.169 63.733C192.542 63.733 192.804 63.6033 192.957 63.3441C193.113 63.0813 193.191 62.7848 193.191 62.4545V61.8793C193.191 61.549 193.117 61.2543 192.968 60.995C192.819 60.7322 192.552 60.6009 192.169 60.6009C191.796 60.6009 191.528 60.7322 191.364 60.995C191.205 61.2543 191.125 61.549 191.125 61.8793ZM184.605 56.2116V55.6364C184.605 55.2386 184.686 54.8746 184.85 54.5444C185.017 54.2106 185.258 53.9442 185.574 53.7454C185.894 53.543 186.281 53.4418 186.735 53.4418C187.197 53.4418 187.584 53.543 187.897 53.7454C188.209 53.9442 188.445 54.2106 188.605 54.5444C188.765 54.8746 188.845 55.2386 188.845 55.6364V56.2116C188.845 56.6094 188.763 56.9751 188.6 57.3089C188.44 57.6392 188.202 57.9055 187.886 58.108C187.574 58.3068 187.19 58.4062 186.735 58.4062C186.274 58.4062 185.885 58.3068 185.569 58.108C185.253 57.9055 185.013 57.6392 184.85 57.3089C184.686 56.9751 184.605 56.6094 184.605 56.2116ZM185.691 55.6364V56.2116C185.691 56.5419 185.77 56.8384 185.926 57.1012C186.082 57.3604 186.352 57.4901 186.735 57.4901C187.108 57.4901 187.371 57.3604 187.524 57.1012C187.68 56.8384 187.758 56.5419 187.758 56.2116V55.6364C187.758 55.3061 187.684 55.0114 187.534 54.7521C187.385 54.4893 187.119 54.358 186.735 54.358C186.363 54.358 186.094 54.4893 185.931 54.7521C185.771 55.0114 185.691 55.3061 185.691 55.6364ZM185.01 64.5L192.51 53.5909H193.724L186.224 64.5H185.01ZM203.312 64.6918C202.794 64.6918 202.323 64.5941 201.901 64.3988C201.478 64.1999 201.142 63.9141 200.894 63.5412C200.645 63.1648 200.521 62.7102 200.521 62.1776C200.521 61.7088 200.613 61.3288 200.798 61.0376C200.983 60.7429 201.229 60.5121 201.538 60.3452C201.847 60.1783 202.188 60.054 202.561 59.9723C202.938 59.8871 203.316 59.8196 203.696 59.7699C204.193 59.706 204.596 59.658 204.905 59.6261C205.217 59.5906 205.445 59.532 205.587 59.4503C205.732 59.3686 205.805 59.2266 205.805 59.0241V58.9815C205.805 58.456 205.661 58.0476 205.374 57.7564C205.089 57.4652 204.658 57.3196 204.079 57.3196C203.479 57.3196 203.009 57.451 202.668 57.7138C202.327 57.9766 202.087 58.2571 201.949 58.5554L200.755 58.1293C200.968 57.6321 201.252 57.245 201.608 56.968C201.966 56.6875 202.357 56.4922 202.779 56.3821C203.206 56.2685 203.625 56.2116 204.037 56.2116C204.299 56.2116 204.601 56.2436 204.942 56.3075C205.287 56.3679 205.619 56.494 205.938 56.6857C206.261 56.8775 206.529 57.1669 206.743 57.554C206.956 57.9411 207.062 58.4595 207.062 59.1094V64.5H205.805V63.392H205.741C205.656 63.5696 205.514 63.7596 205.315 63.962C205.116 64.1644 204.852 64.3366 204.521 64.4787C204.191 64.6207 203.788 64.6918 203.312 64.6918ZM203.504 63.5625C204.001 63.5625 204.42 63.4648 204.761 63.2695C205.105 63.0742 205.365 62.8221 205.539 62.5131C205.716 62.2042 205.805 61.8793 205.805 61.5384V60.3878C205.752 60.4517 205.635 60.5103 205.453 60.5636C205.276 60.6133 205.07 60.6577 204.836 60.6967C204.605 60.7322 204.379 60.7642 204.159 60.7926C203.942 60.8175 203.767 60.8388 203.632 60.8565C203.305 60.8991 203 60.9684 202.716 61.0643C202.435 61.1566 202.208 61.2969 202.034 61.4851C201.863 61.6697 201.778 61.9219 201.778 62.2415C201.778 62.6783 201.94 63.0085 202.263 63.2322C202.589 63.4524 203.003 63.5625 203.504 63.5625ZM213.575 64.5V56.3182H214.79V57.5966H214.896C215.067 57.1598 215.342 56.8207 215.722 56.5792C216.102 56.3342 216.558 56.2116 217.091 56.2116C217.631 56.2116 218.08 56.3342 218.439 56.5792C218.801 56.8207 219.083 57.1598 219.286 57.5966H219.371C219.58 57.174 219.895 56.8384 220.314 56.5898C220.733 56.3377 221.235 56.2116 221.821 56.2116C222.553 56.2116 223.151 56.4407 223.616 56.8988C224.081 57.3533 224.314 58.0618 224.314 59.0241V64.5H223.057V59.0241C223.057 58.4205 222.892 57.989 222.562 57.7298C222.231 57.4705 221.842 57.3409 221.395 57.3409C220.82 57.3409 220.374 57.5149 220.058 57.8629C219.742 58.2074 219.584 58.6442 219.584 59.1733V64.5H218.305V58.8963C218.305 58.4311 218.155 58.0565 217.853 57.7724C217.551 57.4847 217.162 57.3409 216.686 57.3409C216.359 57.3409 216.054 57.4279 215.77 57.6019C215.489 57.7759 215.262 58.0174 215.088 58.3263C214.918 58.6317 214.832 58.9851 214.832 59.3864V64.5H213.575ZM229.02 64.6918C228.502 64.6918 228.031 64.5941 227.609 64.3988C227.186 64.1999 226.85 63.9141 226.602 63.5412C226.353 63.1648 226.229 62.7102 226.229 62.1776C226.229 61.7088 226.321 61.3288 226.506 61.0376C226.691 60.7429 226.937 60.5121 227.246 60.3452C227.555 60.1783 227.896 60.054 228.269 59.9723C228.646 59.8871 229.024 59.8196 229.404 59.7699C229.901 59.706 230.304 59.658 230.613 59.6261C230.925 59.5906 231.153 59.532 231.295 59.4503C231.44 59.3686 231.513 59.2266 231.513 59.0241V58.9815C231.513 58.456 231.369 58.0476 231.082 57.7564C230.797 57.4652 230.366 57.3196 229.787 57.3196C229.187 57.3196 228.717 57.451 228.376 57.7138C228.035 57.9766 227.795 58.2571 227.657 58.5554L226.463 58.1293C226.676 57.6321 226.96 57.245 227.316 56.968C227.674 56.6875 228.065 56.4922 228.487 56.3821C228.914 56.2685 229.333 56.2116 229.745 56.2116C230.007 56.2116 230.309 56.2436 230.65 56.3075C230.995 56.3679 231.327 56.494 231.646 56.6857C231.969 56.8775 232.237 57.1669 232.451 57.554C232.664 57.9411 232.77 58.4595 232.77 59.1094V64.5H231.513V63.392H231.449C231.364 63.5696 231.222 63.7596 231.023 63.962C230.824 64.1644 230.56 64.3366 230.229 64.4787C229.899 64.6207 229.496 64.6918 229.02 64.6918ZM229.212 63.5625C229.709 63.5625 230.128 63.4648 230.469 63.2695C230.813 63.0742 231.073 62.8221 231.247 62.5131C231.424 62.2042 231.513 61.8793 231.513 61.5384V60.3878C231.46 60.4517 231.343 60.5103 231.161 60.5636C230.984 60.6133 230.778 60.6577 230.544 60.6967C230.313 60.7322 230.087 60.7642 229.867 60.7926C229.65 60.8175 229.475 60.8388 229.34 60.8565C229.013 60.8991 228.708 60.9684 228.424 61.0643C228.143 61.1566 227.916 61.2969 227.742 61.4851C227.571 61.6697 227.486 61.9219 227.486 62.2415C227.486 62.6783 227.648 63.0085 227.971 63.2322C228.297 63.4524 228.711 63.5625 229.212 63.5625ZM235.065 64.5V56.3182H236.322V64.5H235.065ZM235.704 54.9545C235.459 54.9545 235.248 54.8711 235.07 54.7042C234.896 54.5373 234.809 54.3366 234.809 54.1023C234.809 53.8679 234.896 53.6673 235.07 53.5004C235.248 53.3335 235.459 53.25 235.704 53.25C235.949 53.25 236.158 53.3335 236.332 53.5004C236.51 53.6673 236.599 53.8679 236.599 54.1023C236.599 54.3366 236.51 54.5373 236.332 54.7042C236.158 54.8711 235.949 54.9545 235.704 54.9545ZM244.42 58.1506L243.29 58.4702C243.219 58.282 243.115 58.0991 242.976 57.9215C242.841 57.7404 242.657 57.5913 242.422 57.4741C242.188 57.3569 241.888 57.2983 241.522 57.2983C241.021 57.2983 240.604 57.4137 240.27 57.6445C239.94 57.8718 239.775 58.1612 239.775 58.5128C239.775 58.8253 239.888 59.0721 240.116 59.2532C240.343 59.4343 240.698 59.5852 241.181 59.706L242.396 60.0043C243.127 60.1818 243.672 60.4535 244.031 60.8192C244.389 61.1815 244.569 61.6484 244.569 62.2202C244.569 62.6889 244.434 63.108 244.164 63.4773C243.898 63.8466 243.525 64.1378 243.045 64.3509C242.566 64.5639 242.008 64.6705 241.373 64.6705C240.538 64.6705 239.848 64.4893 239.301 64.1271C238.754 63.7649 238.408 63.2358 238.262 62.5398L239.455 62.2415C239.569 62.6818 239.784 63.0121 240.1 63.2322C240.419 63.4524 240.837 63.5625 241.351 63.5625C241.937 63.5625 242.403 63.4382 242.747 63.1896C243.095 62.9375 243.269 62.6357 243.269 62.2841C243.269 62 243.17 61.7621 242.971 61.5703C242.772 61.375 242.467 61.2294 242.055 61.1335L240.691 60.8139C239.942 60.6364 239.391 60.3612 239.04 59.9883C238.692 59.6119 238.518 59.1413 238.518 58.5767C238.518 58.1151 238.647 57.7067 238.907 57.3516C239.169 56.9964 239.526 56.7177 239.977 56.5153C240.432 56.3129 240.947 56.2116 241.522 56.2116C242.332 56.2116 242.967 56.3892 243.429 56.7443C243.894 57.0994 244.224 57.5682 244.42 58.1506ZM253.769 64.6705C253.088 64.6705 252.486 64.4982 251.964 64.1538C251.442 63.8058 251.033 63.3157 250.738 62.6836C250.444 62.0479 250.296 61.2969 250.296 60.4304C250.296 59.571 250.444 58.8253 250.738 58.1932C251.033 57.5611 251.443 57.0728 251.969 56.7283C252.494 56.3839 253.102 56.2116 253.791 56.2116C254.323 56.2116 254.744 56.3004 255.053 56.478C255.366 56.652 255.604 56.8509 255.767 57.0746C255.934 57.2947 256.063 57.4759 256.156 57.6179H256.262V53.5909H257.519V64.5H256.305V63.2429H256.156C256.063 63.392 255.932 63.5803 255.762 63.8075C255.591 64.0312 255.348 64.2319 255.032 64.4094C254.716 64.5835 254.295 64.6705 253.769 64.6705ZM253.94 63.5412C254.444 63.5412 254.87 63.4098 255.218 63.147C255.566 62.8807 255.831 62.5131 256.012 62.0444C256.193 61.5721 256.284 61.027 256.284 60.4091C256.284 59.7983 256.195 59.2638 256.017 58.8058C255.84 58.3441 255.577 57.9854 255.229 57.7298C254.881 57.4705 254.451 57.3409 253.94 57.3409C253.407 57.3409 252.963 57.4776 252.608 57.7511C252.257 58.021 251.992 58.3885 251.814 58.8537C251.64 59.3153 251.553 59.8338 251.553 60.4091C251.553 60.9915 251.642 61.5206 251.82 61.9964C252.001 62.4687 252.267 62.8452 252.619 63.1257C252.974 63.4027 253.414 63.5412 253.94 63.5412ZM263.32 64.6705C262.581 64.6705 261.933 64.4947 261.376 64.1431C260.822 63.7915 260.389 63.2997 260.076 62.6676C259.767 62.0355 259.613 61.2969 259.613 60.4517C259.613 59.5994 259.767 58.8555 260.076 58.2198C260.389 57.5842 260.822 57.0906 261.376 56.739C261.933 56.3874 262.581 56.2116 263.32 56.2116C264.059 56.2116 264.705 56.3874 265.259 56.739C265.817 57.0906 266.25 57.5842 266.559 58.2198C266.871 58.8555 267.028 59.5994 267.028 60.4517C267.028 61.2969 266.871 62.0355 266.559 62.6676C266.25 63.2997 265.817 63.7915 265.259 64.1431C264.705 64.4947 264.059 64.6705 263.32 64.6705ZM263.32 63.5412C263.881 63.5412 264.343 63.3974 264.705 63.1097C265.067 62.8221 265.335 62.4439 265.509 61.9751C265.683 61.5064 265.77 60.9986 265.77 60.4517C265.77 59.9048 265.683 59.3952 265.509 58.9229C265.335 58.4506 265.067 58.0689 264.705 57.7777C264.343 57.4865 263.881 57.3409 263.32 57.3409C262.759 57.3409 262.297 57.4865 261.935 57.7777C261.573 58.0689 261.305 58.4506 261.131 58.9229C260.957 59.3952 260.87 59.9048 260.87 60.4517C260.87 60.9986 260.957 61.5064 261.131 61.9751C261.305 62.4439 261.573 62.8221 261.935 63.1097C262.297 63.3974 262.759 63.5412 263.32 63.5412ZM278.748 67.5682V63.2429H278.641C278.549 63.392 278.417 63.5803 278.247 63.8075C278.076 64.0312 277.833 64.2319 277.517 64.4094C277.201 64.5835 276.78 64.6705 276.255 64.6705C275.573 64.6705 274.971 64.4982 274.449 64.1538C273.927 63.8058 273.519 63.3157 273.224 62.6836C272.929 62.0479 272.782 61.2969 272.782 60.4304C272.782 59.571 272.929 58.8253 273.224 58.1932C273.519 57.5611 273.929 57.0728 274.454 56.7283C274.98 56.3839 275.587 56.2116 276.276 56.2116C276.809 56.2116 277.229 56.3004 277.538 56.478C277.851 56.652 278.089 56.8509 278.252 57.0746C278.419 57.2947 278.549 57.4759 278.641 57.6179H278.79V56.3182H280.005V67.5682H278.748ZM276.425 63.5412C276.929 63.5412 277.356 63.4098 277.704 63.147C278.052 62.8807 278.316 62.5131 278.497 62.0444C278.678 61.5721 278.769 61.027 278.769 60.4091C278.769 59.7983 278.68 59.2638 278.503 58.8058C278.325 58.3441 278.062 57.9854 277.714 57.7298C277.366 57.4705 276.937 57.3409 276.425 57.3409C275.892 57.3409 275.449 57.4776 275.093 57.7511C274.742 58.021 274.477 58.3885 274.3 58.8537C274.126 59.3153 274.039 59.8338 274.039 60.4091C274.039 60.9915 274.128 61.5206 274.305 61.9964C274.486 62.4687 274.753 62.8452 275.104 63.1257C275.459 63.4027 275.9 63.5412 276.425 63.5412ZM287.462 61.1548V56.3182H288.719V64.5H287.462V63.1151H287.377C287.185 63.5305 286.887 63.8839 286.482 64.1751C286.077 64.4627 285.566 64.6065 284.948 64.6065C284.437 64.6065 283.982 64.4947 283.584 64.271C283.187 64.0437 282.874 63.7028 282.647 63.2482C282.419 62.7901 282.306 62.2131 282.306 61.517V56.3182H283.563V61.4318C283.563 62.0284 283.73 62.5043 284.064 62.8594C284.401 63.2145 284.831 63.392 285.353 63.392C285.665 63.392 285.983 63.3121 286.306 63.1523C286.633 62.9925 286.906 62.7475 287.127 62.4173C287.35 62.087 287.462 61.6662 287.462 61.1548ZM294.452 64.6705C293.664 64.6705 292.984 64.4964 292.412 64.1484C291.844 63.7969 291.405 63.3068 291.096 62.6783C290.791 62.0462 290.638 61.3111 290.638 60.473C290.638 59.6349 290.791 58.8963 291.096 58.2571C291.405 57.6143 291.835 57.1136 292.385 56.755C292.939 56.3928 293.586 56.2116 294.324 56.2116C294.75 56.2116 295.171 56.2827 295.587 56.4247C296.002 56.5668 296.38 56.7976 296.721 57.1172C297.062 57.4332 297.334 57.8523 297.536 58.3743C297.739 58.8963 297.84 59.5391 297.84 60.3026V60.8352H291.533V59.7486H296.561C296.561 59.2869 296.469 58.875 296.284 58.5128C296.103 58.1506 295.844 57.8647 295.507 57.6552C295.173 57.4457 294.779 57.3409 294.324 57.3409C293.824 57.3409 293.39 57.4652 293.025 57.7138C292.662 57.9588 292.384 58.2784 292.188 58.6726C291.993 59.0668 291.895 59.4893 291.895 59.9403V60.6648C291.895 61.2827 292.002 61.8065 292.215 62.2362C292.431 62.6623 292.732 62.9872 293.115 63.2109C293.499 63.4311 293.944 63.5412 294.452 63.5412C294.782 63.5412 295.081 63.495 295.347 63.4027C295.617 63.3068 295.849 63.1648 296.045 62.9766C296.24 62.7848 296.391 62.5469 296.498 62.2628L297.712 62.6037C297.584 63.0156 297.369 63.3778 297.067 63.6903C296.766 63.9993 296.393 64.2408 295.949 64.4148C295.505 64.5852 295.006 64.6705 294.452 64.6705ZM169.408 77.5781V82.5H168.151V74.3182H169.365V75.5966H169.472C169.663 75.1811 169.955 74.8473 170.345 74.5952C170.736 74.3395 171.24 74.2116 171.858 74.2116C172.412 74.2116 172.897 74.3253 173.312 74.5526C173.728 74.7763 174.051 75.1172 174.282 75.5753C174.512 76.0298 174.628 76.6051 174.628 77.3011V82.5H173.371V77.3864C173.371 76.7436 173.204 76.2429 172.87 75.8842C172.536 75.522 172.078 75.3409 171.496 75.3409C171.094 75.3409 170.736 75.4279 170.42 75.6019C170.107 75.7759 169.86 76.0298 169.679 76.3636C169.498 76.6974 169.408 77.1023 169.408 77.5781ZM179.333 82.6918C178.814 82.6918 178.344 82.5941 177.921 82.3988C177.498 82.1999 177.163 81.9141 176.914 81.5412C176.666 81.1648 176.541 80.7102 176.541 80.1776C176.541 79.7088 176.634 79.3288 176.818 79.0376C177.003 78.7429 177.25 78.5121 177.559 78.3452C177.868 78.1783 178.209 78.054 178.582 77.9723C178.958 77.8871 179.336 77.8196 179.716 77.7699C180.213 77.706 180.616 77.658 180.925 77.6261C181.238 77.5906 181.465 77.532 181.607 77.4503C181.753 77.3686 181.826 77.2266 181.826 77.0241V76.9815C181.826 76.456 181.682 76.0476 181.394 75.7564C181.11 75.4652 180.679 75.3196 180.1 75.3196C179.5 75.3196 179.029 75.451 178.688 75.7138C178.347 75.9766 178.108 76.2571 177.969 76.5554L176.776 76.1293C176.989 75.6321 177.273 75.245 177.628 74.968C177.987 74.6875 178.377 74.4922 178.8 74.3821C179.226 74.2685 179.645 74.2116 180.057 74.2116C180.32 74.2116 180.622 74.2436 180.963 74.3075C181.307 74.3679 181.639 74.494 181.959 74.6857C182.282 74.8775 182.55 75.1669 182.763 75.554C182.976 75.9411 183.083 76.4595 183.083 77.1094V82.5H181.826V81.392H181.762C181.676 81.5696 181.534 81.7596 181.335 81.962C181.137 82.1644 180.872 82.3366 180.542 82.4787C180.212 82.6207 179.809 82.6918 179.333 82.6918ZM179.524 81.5625C180.022 81.5625 180.441 81.4648 180.782 81.2695C181.126 81.0742 181.385 80.8221 181.559 80.5131C181.737 80.2042 181.826 79.8793 181.826 79.5384V78.3878C181.772 78.4517 181.655 78.5103 181.474 78.5636C181.296 78.6133 181.09 78.6577 180.856 78.6967C180.625 78.7322 180.4 78.7642 180.18 78.7926C179.963 78.8175 179.787 78.8388 179.652 78.8565C179.326 78.8991 179.02 78.9684 178.736 79.0643C178.456 79.1566 178.228 79.2969 178.054 79.4851C177.884 79.6697 177.799 79.9219 177.799 80.2415C177.799 80.6783 177.96 81.0085 178.283 81.2322C178.61 81.4524 179.024 81.5625 179.524 81.5625ZM195.391 76.1506L194.262 76.4702C194.191 76.282 194.086 76.0991 193.948 75.9215C193.813 75.7404 193.628 75.5913 193.394 75.4741C193.159 75.3569 192.859 75.2983 192.494 75.2983C191.993 75.2983 191.576 75.4137 191.242 75.6445C190.912 75.8718 190.746 76.1612 190.746 76.5128C190.746 76.8253 190.86 77.0721 191.087 77.2532C191.315 77.4343 191.67 77.5852 192.153 77.706L193.367 78.0043C194.099 78.1818 194.644 78.4535 195.002 78.8192C195.361 79.1815 195.54 79.6484 195.54 80.2202C195.54 80.6889 195.406 81.108 195.136 81.4773C194.869 81.8466 194.496 82.1378 194.017 82.3509C193.538 82.5639 192.98 82.6705 192.344 82.6705C191.51 82.6705 190.819 82.4893 190.272 82.1271C189.725 81.7649 189.379 81.2358 189.234 80.5398L190.427 80.2415C190.54 80.6818 190.755 81.0121 191.071 81.2322C191.391 81.4524 191.808 81.5625 192.323 81.5625C192.909 81.5625 193.374 81.4382 193.719 81.1896C194.067 80.9375 194.241 80.6357 194.241 80.2841C194.241 80 194.141 79.7621 193.942 79.5703C193.744 79.375 193.438 79.2294 193.026 79.1335L191.663 78.8139C190.913 78.6364 190.363 78.3612 190.011 77.9883C189.663 77.6119 189.489 77.1413 189.489 76.5767C189.489 76.1151 189.619 75.7067 189.878 75.3516C190.141 74.9964 190.498 74.7177 190.949 74.5153C191.403 74.3129 191.918 74.2116 192.494 74.2116C193.303 74.2116 193.939 74.3892 194.401 74.7443C194.866 75.0994 195.196 75.5682 195.391 76.1506ZM200.863 82.6705C200.075 82.6705 199.395 82.4964 198.823 82.1484C198.255 81.7969 197.816 81.3068 197.507 80.6783C197.202 80.0462 197.049 79.3111 197.049 78.473C197.049 77.6349 197.202 76.8963 197.507 76.2571C197.816 75.6143 198.246 75.1136 198.796 74.755C199.35 74.3928 199.997 74.2116 200.735 74.2116C201.161 74.2116 201.582 74.2827 201.998 74.4247C202.413 74.5668 202.791 74.7976 203.132 75.1172C203.473 75.4332 203.745 75.8523 203.947 76.3743C204.15 76.8963 204.251 77.5391 204.251 78.3026V78.8352H197.944V77.7486H202.973C202.973 77.2869 202.88 76.875 202.696 76.5128C202.514 76.1506 202.255 75.8647 201.918 75.6552C201.584 75.4457 201.19 75.3409 200.735 75.3409C200.235 75.3409 199.801 75.4652 199.436 75.7138C199.073 75.9588 198.795 76.2784 198.599 76.6726C198.404 77.0668 198.306 77.4893 198.306 77.9403V78.6648C198.306 79.2827 198.413 79.8065 198.626 80.2362C198.843 80.6623 199.143 80.9872 199.526 81.2109C199.91 81.4311 200.355 81.5412 200.863 81.5412C201.193 81.5412 201.492 81.495 201.758 81.4027C202.028 81.3068 202.261 81.1648 202.456 80.9766C202.651 80.7848 202.802 80.5469 202.909 80.2628L204.123 80.6037C203.995 81.0156 203.78 81.3778 203.479 81.6903C203.177 81.9993 202.804 82.2408 202.36 82.4148C201.916 82.5852 201.417 82.6705 200.863 82.6705ZM206.163 82.5V74.3182H207.378V75.5966H207.484C207.655 75.1598 207.93 74.8207 208.31 74.5792C208.69 74.3342 209.146 74.2116 209.679 74.2116C210.219 74.2116 210.668 74.3342 211.027 74.5792C211.389 74.8207 211.671 75.1598 211.873 75.5966H211.959C212.168 75.174 212.483 74.8384 212.902 74.5898C213.321 74.3377 213.823 74.2116 214.409 74.2116C215.141 74.2116 215.739 74.4407 216.204 74.8988C216.669 75.3533 216.902 76.0618 216.902 77.0241V82.5H215.645V77.0241C215.645 76.4205 215.48 75.989 215.149 75.7298C214.819 75.4705 214.43 75.3409 213.983 75.3409C213.408 75.3409 212.962 75.5149 212.646 75.8629C212.33 76.2074 212.172 76.6442 212.172 77.1733V82.5H210.893V76.8963C210.893 76.4311 210.742 76.0565 210.441 75.7724C210.139 75.4847 209.75 75.3409 209.274 75.3409C208.947 75.3409 208.642 75.4279 208.358 75.6019C208.077 75.7759 207.85 76.0174 207.676 76.3263C207.506 76.6317 207.42 76.9851 207.42 77.3864V82.5H206.163ZM221.608 82.6918C221.09 82.6918 220.619 82.5941 220.196 82.3988C219.774 82.1999 219.438 81.9141 219.19 81.5412C218.941 81.1648 218.817 80.7102 218.817 80.1776C218.817 79.7088 218.909 79.3288 219.094 79.0376C219.278 78.7429 219.525 78.5121 219.834 78.3452C220.143 78.1783 220.484 78.054 220.857 77.9723C221.233 77.8871 221.612 77.8196 221.992 77.7699C222.489 77.706 222.892 77.658 223.201 77.6261C223.513 77.5906 223.741 77.532 223.883 77.4503C224.028 77.3686 224.101 77.2266 224.101 77.0241V76.9815C224.101 76.456 223.957 76.0476 223.669 75.7564C223.385 75.4652 222.954 75.3196 222.375 75.3196C221.775 75.3196 221.304 75.451 220.964 75.7138C220.623 75.9766 220.383 76.2571 220.244 76.5554L219.051 76.1293C219.264 75.6321 219.548 75.245 219.903 74.968C220.262 74.6875 220.653 74.4922 221.075 74.3821C221.502 74.2685 221.921 74.2116 222.332 74.2116C222.595 74.2116 222.897 74.2436 223.238 74.3075C223.582 74.3679 223.915 74.494 224.234 74.6857C224.557 74.8775 224.825 75.1669 225.038 75.554C225.252 75.9411 225.358 76.4595 225.358 77.1094V82.5H224.101V81.392H224.037C223.952 81.5696 223.81 81.7596 223.611 81.962C223.412 82.1644 223.147 82.3366 222.817 82.4787C222.487 82.6207 222.084 82.6918 221.608 82.6918ZM221.8 81.5625C222.297 81.5625 222.716 81.4648 223.057 81.2695C223.401 81.0742 223.661 80.8221 223.835 80.5131C224.012 80.2042 224.101 79.8793 224.101 79.5384V78.3878C224.048 78.4517 223.93 78.5103 223.749 78.5636C223.572 78.6133 223.366 78.6577 223.131 78.6967C222.901 78.7322 222.675 78.7642 222.455 78.7926C222.238 78.8175 222.063 78.8388 221.928 78.8565C221.601 78.8991 221.296 78.9684 221.011 79.0643C220.731 79.1566 220.504 79.2969 220.33 79.4851C220.159 79.6697 220.074 79.9219 220.074 80.2415C220.074 80.6783 220.236 81.0085 220.559 81.2322C220.885 81.4524 221.299 81.5625 221.8 81.5625ZM228.91 77.5781V82.5H227.653V74.3182H228.867V75.5966H228.974C229.165 75.1811 229.456 74.8473 229.847 74.5952C230.238 74.3395 230.742 74.2116 231.36 74.2116C231.914 74.2116 232.399 74.3253 232.814 74.5526C233.23 74.7763 233.553 75.1172 233.784 75.5753C234.014 76.0298 234.13 76.6051 234.13 77.3011V82.5H232.873V77.3864C232.873 76.7436 232.706 76.2429 232.372 75.8842C232.038 75.522 231.58 75.3409 230.998 75.3409C230.596 75.3409 230.238 75.4279 229.922 75.6019C229.609 75.7759 229.362 76.0298 229.181 76.3636C229 76.6974 228.91 77.1023 228.91 77.5781ZM238.835 82.6918C238.316 82.6918 237.846 82.5941 237.423 82.3988C237 82.1999 236.665 81.9141 236.416 81.5412C236.168 81.1648 236.043 80.7102 236.043 80.1776C236.043 79.7088 236.136 79.3288 236.32 79.0376C236.505 78.7429 236.752 78.5121 237.061 78.3452C237.37 78.1783 237.711 78.054 238.084 77.9723C238.46 77.8871 238.838 77.8196 239.218 77.7699C239.715 77.706 240.118 77.658 240.427 77.6261C240.74 77.5906 240.967 77.532 241.109 77.4503C241.255 77.3686 241.328 77.2266 241.328 77.0241V76.9815C241.328 76.456 241.184 76.0476 240.896 75.7564C240.612 75.4652 240.18 75.3196 239.602 75.3196C239.002 75.3196 238.531 75.451 238.19 75.7138C237.849 75.9766 237.609 76.2571 237.471 76.5554L236.278 76.1293C236.491 75.6321 236.775 75.245 237.13 74.968C237.489 74.6875 237.879 74.4922 238.302 74.3821C238.728 74.2685 239.147 74.2116 239.559 74.2116C239.822 74.2116 240.124 74.2436 240.465 74.3075C240.809 74.3679 241.141 74.494 241.461 74.6857C241.784 74.8775 242.052 75.1669 242.265 75.554C242.478 75.9411 242.585 76.4595 242.585 77.1094V82.5H241.328V81.392H241.264C241.178 81.5696 241.036 81.7596 240.837 81.962C240.639 82.1644 240.374 82.3366 240.044 82.4787C239.714 82.6207 239.31 82.6918 238.835 82.6918ZM239.026 81.5625C239.524 81.5625 239.943 81.4648 240.283 81.2695C240.628 81.0742 240.887 80.8221 241.061 80.5131C241.239 80.2042 241.328 79.8793 241.328 79.5384V78.3878C241.274 78.4517 241.157 78.5103 240.976 78.5636C240.798 78.6133 240.592 78.6577 240.358 78.6967C240.127 78.7322 239.902 78.7642 239.682 78.7926C239.465 78.8175 239.289 78.8388 239.154 78.8565C238.828 78.8991 238.522 78.9684 238.238 79.0643C237.957 79.1566 237.73 79.2969 237.556 79.4851C237.386 79.6697 237.301 79.9219 237.301 80.2415C237.301 80.6783 237.462 81.0085 237.785 81.2322C238.112 81.4524 238.526 81.5625 239.026 81.5625ZM249.098 85.5682V74.3182H250.312V75.6179H250.461C250.554 75.4759 250.682 75.2947 250.845 75.0746C251.012 74.8509 251.25 74.652 251.559 74.478C251.871 74.3004 252.294 74.2116 252.827 74.2116C253.515 74.2116 254.123 74.3839 254.648 74.7283C255.174 75.0728 255.584 75.5611 255.879 76.1932C256.173 76.8253 256.321 77.571 256.321 78.4304C256.321 79.2969 256.173 80.0479 255.879 80.6836C255.584 81.3157 255.176 81.8058 254.654 82.1538C254.132 82.4982 253.53 82.6705 252.848 82.6705C252.322 82.6705 251.901 82.5835 251.585 82.4094C251.269 82.2319 251.026 82.0312 250.856 81.8075C250.685 81.5803 250.554 81.392 250.461 81.2429H250.355V85.5682H249.098ZM250.334 78.4091C250.334 79.027 250.424 79.5721 250.605 80.0444C250.786 80.5131 251.051 80.8807 251.399 81.147C251.747 81.4098 252.173 81.5412 252.677 81.5412C253.203 81.5412 253.642 81.4027 253.993 81.1257C254.348 80.8452 254.615 80.4687 254.792 79.9964C254.973 79.5206 255.064 78.9915 255.064 78.4091C255.064 77.8338 254.975 77.3153 254.797 76.8537C254.623 76.3885 254.359 76.021 254.004 75.7511C253.652 75.4776 253.21 75.3409 252.677 75.3409C252.166 75.3409 251.736 75.4705 251.388 75.7298C251.04 75.9854 250.778 76.3441 250.6 76.8058C250.422 77.2638 250.334 77.7983 250.334 78.4091ZM260.646 82.6918C260.128 82.6918 259.657 82.5941 259.235 82.3988C258.812 82.1999 258.476 81.9141 258.228 81.5412C257.979 81.1648 257.855 80.7102 257.855 80.1776C257.855 79.7088 257.947 79.3288 258.132 79.0376C258.317 78.7429 258.563 78.5121 258.872 78.3452C259.181 78.1783 259.522 78.054 259.895 77.9723C260.271 77.8871 260.65 77.8196 261.03 77.7699C261.527 77.706 261.93 77.658 262.239 77.6261C262.551 77.5906 262.779 77.532 262.921 77.4503C263.066 77.3686 263.139 77.2266 263.139 77.0241V76.9815C263.139 76.456 262.995 76.0476 262.708 75.7564C262.423 75.4652 261.992 75.3196 261.413 75.3196C260.813 75.3196 260.343 75.451 260.002 75.7138C259.661 75.9766 259.421 76.2571 259.282 76.5554L258.089 76.1293C258.302 75.6321 258.586 75.245 258.942 74.968C259.3 74.6875 259.691 74.4922 260.113 74.3821C260.54 74.2685 260.959 74.2116 261.371 74.2116C261.633 74.2116 261.935 74.2436 262.276 74.3075C262.621 74.3679 262.953 74.494 263.272 74.6857C263.595 74.8775 263.863 75.1669 264.077 75.554C264.29 75.9411 264.396 76.4595 264.396 77.1094V82.5H263.139V81.392H263.075C262.99 81.5696 262.848 81.7596 262.649 81.962C262.45 82.1644 262.186 82.3366 261.855 82.4787C261.525 82.6207 261.122 82.6918 260.646 82.6918ZM260.838 81.5625C261.335 81.5625 261.754 81.4648 262.095 81.2695C262.439 81.0742 262.699 80.8221 262.873 80.5131C263.05 80.2042 263.139 79.8793 263.139 79.5384V78.3878C263.086 78.4517 262.969 78.5103 262.787 78.5636C262.61 78.6133 262.404 78.6577 262.17 78.6967C261.939 78.7322 261.713 78.7642 261.493 78.7926C261.276 78.8175 261.101 78.8388 260.966 78.8565C260.639 78.8991 260.334 78.9684 260.05 79.0643C259.769 79.1566 259.542 79.2969 259.368 79.4851C259.197 79.6697 259.112 79.9219 259.112 80.2415C259.112 80.6783 259.274 81.0085 259.597 81.2322C259.923 81.4524 260.337 81.5625 260.838 81.5625ZM272.486 76.1506L271.357 76.4702C271.286 76.282 271.181 76.0991 271.043 75.9215C270.908 75.7404 270.723 75.5913 270.489 75.4741C270.254 75.3569 269.954 75.2983 269.588 75.2983C269.088 75.2983 268.67 75.4137 268.337 75.6445C268.006 75.8718 267.841 76.1612 267.841 76.5128C267.841 76.8253 267.955 77.0721 268.182 77.2532C268.409 77.4343 268.764 77.5852 269.247 77.706L270.462 78.0043C271.193 78.1818 271.739 78.4535 272.097 78.8192C272.456 79.1815 272.635 79.6484 272.635 80.2202C272.635 80.6889 272.5 81.108 272.23 81.4773C271.964 81.8466 271.591 82.1378 271.112 82.3509C270.632 82.5639 270.075 82.6705 269.439 82.6705C268.605 82.6705 267.914 82.4893 267.367 82.1271C266.82 81.7649 266.474 81.2358 266.328 80.5398L267.522 80.2415C267.635 80.6818 267.85 81.0121 268.166 81.2322C268.486 81.4524 268.903 81.5625 269.418 81.5625C270.004 81.5625 270.469 81.4382 270.813 81.1896C271.161 80.9375 271.335 80.6357 271.335 80.2841C271.335 80 271.236 79.7621 271.037 79.5703C270.838 79.375 270.533 79.2294 270.121 79.1335L268.757 78.8139C268.008 78.6364 267.458 78.3612 267.106 77.9883C266.758 77.6119 266.584 77.1413 266.584 76.5767C266.584 76.1151 266.714 75.7067 266.973 75.3516C267.236 74.9964 267.593 74.7177 268.044 74.5153C268.498 74.3129 269.013 74.2116 269.588 74.2116C270.398 74.2116 271.034 74.3892 271.495 74.7443C271.96 75.0994 272.291 75.5682 272.486 76.1506ZM280.323 76.1506L279.194 76.4702C279.123 76.282 279.018 76.0991 278.879 75.9215C278.744 75.7404 278.56 75.5913 278.325 75.4741C278.091 75.3569 277.791 75.2983 277.425 75.2983C276.925 75.2983 276.507 75.4137 276.173 75.6445C275.843 75.8718 275.678 76.1612 275.678 76.5128C275.678 76.8253 275.792 77.0721 276.019 77.2532C276.246 77.4343 276.601 77.5852 277.084 77.706L278.299 78.0043C279.03 78.1818 279.575 78.4535 279.934 78.8192C280.293 79.1815 280.472 79.6484 280.472 80.2202C280.472 80.6889 280.337 81.108 280.067 81.4773C279.801 81.8466 279.428 82.1378 278.949 82.3509C278.469 82.5639 277.912 82.6705 277.276 82.6705C276.442 82.6705 275.751 82.4893 275.204 82.1271C274.657 81.7649 274.311 81.2358 274.165 80.5398L275.358 80.2415C275.472 80.6818 275.687 81.0121 276.003 81.2322C276.323 81.4524 276.74 81.5625 277.255 81.5625C277.841 81.5625 278.306 81.4382 278.65 81.1896C278.998 80.9375 279.172 80.6357 279.172 80.2841C279.172 80 279.073 79.7621 278.874 79.5703C278.675 79.375 278.37 79.2294 277.958 79.1335L276.594 78.8139C275.845 78.6364 275.295 78.3612 274.943 77.9883C274.595 77.6119 274.421 77.1413 274.421 76.5767C274.421 76.1151 274.551 75.7067 274.81 75.3516C275.073 74.9964 275.43 74.7177 275.881 74.5153C276.335 74.3129 276.85 74.2116 277.425 74.2116C278.235 74.2116 278.871 74.3892 279.332 74.7443C279.797 75.0994 280.128 75.5682 280.323 76.1506ZM284.772 82.6918C284.254 82.6918 283.783 82.5941 283.361 82.3988C282.938 82.1999 282.602 81.9141 282.354 81.5412C282.105 81.1648 281.981 80.7102 281.981 80.1776C281.981 79.7088 282.073 79.3288 282.258 79.0376C282.443 78.7429 282.689 78.5121 282.998 78.3452C283.307 78.1783 283.648 78.054 284.021 77.9723C284.397 77.8871 284.776 77.8196 285.156 77.7699C285.653 77.706 286.056 77.658 286.365 77.6261C286.677 77.5906 286.905 77.532 287.047 77.4503C287.192 77.3686 287.265 77.2266 287.265 77.0241V76.9815C287.265 76.456 287.121 76.0476 286.834 75.7564C286.549 75.4652 286.118 75.3196 285.539 75.3196C284.939 75.3196 284.468 75.451 284.128 75.7138C283.787 75.9766 283.547 76.2571 283.408 76.5554L282.215 76.1293C282.428 75.6321 282.712 75.245 283.068 74.968C283.426 74.6875 283.817 74.4922 284.239 74.3821C284.666 74.2685 285.085 74.2116 285.497 74.2116C285.759 74.2116 286.061 74.2436 286.402 74.3075C286.747 74.3679 287.079 74.494 287.398 74.6857C287.721 74.8775 287.989 75.1669 288.203 75.554C288.416 75.9411 288.522 76.4595 288.522 77.1094V82.5H287.265V81.392H287.201C287.116 81.5696 286.974 81.7596 286.775 81.962C286.576 82.1644 286.312 82.3366 285.981 82.4787C285.651 82.6207 285.248 82.6918 284.772 82.6918ZM284.964 81.5625C285.461 81.5625 285.88 81.4648 286.221 81.2695C286.565 81.0742 286.825 80.8221 286.999 80.5131C287.176 80.2042 287.265 79.8793 287.265 79.5384V78.3878C287.212 78.4517 287.095 78.5103 286.913 78.5636C286.736 78.6133 286.53 78.6577 286.296 78.6967C286.065 78.7322 285.839 78.7642 285.619 78.7926C285.402 78.8175 285.227 78.8388 285.092 78.8565C284.765 78.8991 284.46 78.9684 284.176 79.0643C283.895 79.1566 283.668 79.2969 283.494 79.4851C283.323 79.6697 283.238 79.9219 283.238 80.2415C283.238 80.6783 283.4 81.0085 283.723 81.2322C284.049 81.4524 284.463 81.5625 284.964 81.5625ZM293.906 82.6705C293.224 82.6705 292.622 82.4982 292.1 82.1538C291.578 81.8058 291.17 81.3157 290.875 80.6836C290.58 80.0479 290.433 79.2969 290.433 78.4304C290.433 77.571 290.58 76.8253 290.875 76.1932C291.17 75.5611 291.58 75.0728 292.106 74.7283C292.631 74.3839 293.238 74.2116 293.927 74.2116C294.46 74.2116 294.881 74.3004 295.19 74.478C295.502 74.652 295.74 74.8509 295.904 75.0746C296.07 75.2947 296.2 75.4759 296.292 75.6179H296.399V71.5909H297.656V82.5H296.442V81.2429H296.292C296.2 81.392 296.069 81.5803 295.898 81.8075C295.728 82.0312 295.485 82.2319 295.169 82.4094C294.852 82.5835 294.432 82.6705 293.906 82.6705ZM294.077 81.5412C294.581 81.5412 295.007 81.4098 295.355 81.147C295.703 80.8807 295.968 80.5131 296.149 80.0444C296.33 79.5721 296.42 79.027 296.42 78.4091C296.42 77.7983 296.331 77.2638 296.154 76.8058C295.976 76.3441 295.714 75.9854 295.366 75.7298C295.018 75.4705 294.588 75.3409 294.077 75.3409C293.544 75.3409 293.1 75.4776 292.745 75.7511C292.393 76.021 292.129 76.3885 291.951 76.8537C291.777 77.3153 291.69 77.8338 291.69 78.4091C291.69 78.9915 291.779 79.5206 291.956 79.9964C292.138 80.4687 292.404 80.8452 292.756 81.1257C293.111 81.4027 293.551 81.5412 294.077 81.5412ZM302.541 82.6918C302.022 82.6918 301.552 82.5941 301.129 82.3988C300.706 82.1999 300.371 81.9141 300.122 81.5412C299.874 81.1648 299.749 80.7102 299.749 80.1776C299.749 79.7088 299.842 79.3288 300.026 79.0376C300.211 78.7429 300.458 78.5121 300.767 78.3452C301.076 78.1783 301.417 78.054 301.79 77.9723C302.166 77.8871 302.544 77.8196 302.924 77.7699C303.421 77.706 303.824 77.658 304.133 77.6261C304.446 77.5906 304.673 77.532 304.815 77.4503C304.961 77.3686 305.034 77.2266 305.034 77.0241V76.9815C305.034 76.456 304.89 76.0476 304.602 75.7564C304.318 75.4652 303.887 75.3196 303.308 75.3196C302.708 75.3196 302.237 75.451 301.896 75.7138C301.555 75.9766 301.316 76.2571 301.177 76.5554L299.984 76.1293C300.197 75.6321 300.481 75.245 300.836 74.968C301.195 74.6875 301.585 74.4922 302.008 74.3821C302.434 74.2685 302.853 74.2116 303.265 74.2116C303.528 74.2116 303.83 74.2436 304.171 74.3075C304.515 74.3679 304.847 74.494 305.167 74.6857C305.49 74.8775 305.758 75.1669 305.971 75.554C306.184 75.9411 306.291 76.4595 306.291 77.1094V82.5H305.034V81.392H304.97C304.884 81.5696 304.742 81.7596 304.544 81.962C304.345 82.1644 304.08 82.3366 303.75 82.4787C303.42 82.6207 303.017 82.6918 302.541 82.6918ZM302.732 81.5625C303.23 81.5625 303.649 81.4648 303.99 81.2695C304.334 81.0742 304.593 80.8221 304.767 80.5131C304.945 80.2042 305.034 79.8793 305.034 79.5384V78.3878C304.98 78.4517 304.863 78.5103 304.682 78.5636C304.504 78.6133 304.298 78.6577 304.064 78.6967C303.833 78.7322 303.608 78.7642 303.388 78.7926C303.171 78.8175 302.995 78.8388 302.86 78.8565C302.534 78.8991 302.228 78.9684 301.944 79.0643C301.664 79.1566 301.436 79.2969 301.262 79.4851C301.092 79.6697 301.007 79.9219 301.007 80.2415C301.007 80.6783 301.168 81.0085 301.491 81.2322C301.818 81.4524 302.232 81.5625 302.732 81.5625Z" fill="#1E3146"/>
</g>
<defs>
<linearGradient id="paint0_linear_17_9280" x1="182.51" y1="145.16" x2="182.51" y2="207.011" gradientUnits="userSpaceOnUse">
<stop stop-color="#E3F8FD"/>
<stop offset="1" stop-color="#E3F8FD" stop-opacity="0"/>
</linearGradient>
<clipPath id="clip0_17_9280">
<rect width="360" height="207" fill="white"/>
</clipPath>
</defs>
</svg>
