<svg width="153" height="33" viewBox="0 0 153 33" fill="none" xmlns="http://www.w3.org/2000/svg">
<g clip-path="url(#clip0_128_66)">
<path d="M8.36621 4.17486L0 12.5414V18.6346H1.59606H6.22642V14.0042L12.211 8.01963L18.1835 13.9922V18.6346H22.8262H24.422L24.4223 12.5411L16.0558 4.17486L12.211 0.330078L8.36621 4.17486Z" fill="#7C00FE"/>
<path d="M15.4806 15.5996H9.42285V21.6574H15.4806V15.5996Z" fill="#7C00FE"/>
<path d="M22.2884 20.6572H18.1895V24.7562H22.2884V20.6572Z" fill="#7C00FE"/>
<path d="M6.23715 22.7061H1.48047V27.4627H6.23715V22.7061Z" fill="#7C00FE"/>
<path d="M9.39029 27.4629H6.19727V30.6559H9.39029V27.4629Z" fill="#7C00FE"/>
<path d="M15.2829 24.501H12.0898V27.694H15.2829V24.501Z" fill="#7C00FE"/>
<path d="M18.4762 29.5293H15.2832V32.7223H18.4762V29.5293Z" fill="#7C00FE"/>
</g>
<path d="M38.9219 11.8753C38.8712 11.3639 38.6535 10.9666 38.2689 10.6835C37.8843 10.4003 37.3623 10.2587 36.703 10.2587C36.255 10.2587 35.8767 10.3221 35.5682 10.4489C35.2597 10.5715 35.023 10.7426 34.8581 10.9624C34.6975 11.1822 34.6172 11.4316 34.6172 11.7105C34.6088 11.943 34.6574 12.1458 34.763 12.3191C34.8729 12.4924 35.023 12.6424 35.2132 12.7692C35.4034 12.8918 35.6231 12.9996 35.8725 13.0926C36.1219 13.1813 36.3881 13.2574 36.6713 13.3208L37.8378 13.5997C38.4042 13.7265 38.924 13.8956 39.3974 14.1069C39.8708 14.3182 40.2807 14.5782 40.6273 14.8867C40.9739 15.1952 41.2422 15.5587 41.4324 15.9771C41.6269 16.3956 41.7262 16.8753 41.7304 17.4163C41.7262 18.2108 41.5233 18.8998 41.1218 19.483C40.7245 20.062 40.1497 20.5122 39.3974 20.8334C38.6493 21.1504 37.7469 21.3089 36.6903 21.3089C35.6422 21.3089 34.7292 21.1482 33.9516 20.827C33.1781 20.5058 32.5737 20.0303 32.1384 19.4006C31.7073 18.7666 31.4812 17.9826 31.46 17.0486H34.1164C34.146 17.4839 34.2707 17.8474 34.4904 18.139C34.7144 18.4264 35.0124 18.6441 35.3843 18.792C35.7605 18.9357 36.1853 19.0075 36.6586 19.0075C37.1235 19.0075 37.5272 18.9399 37.8695 18.8047C38.2161 18.6694 38.4845 18.4813 38.6747 18.2404C38.8649 17.9995 38.9599 17.7227 38.9599 17.4099C38.9599 17.1183 38.8733 16.8732 38.7 16.6745C38.531 16.4759 38.2816 16.3068 37.9519 16.1673C37.6265 16.0279 37.2271 15.9011 36.7537 15.7869L35.34 15.4319C34.2453 15.1657 33.381 14.7493 32.747 14.183C32.113 13.6166 31.7982 12.8538 31.8024 11.8944C31.7982 11.1082 32.0074 10.4214 32.43 9.83395C32.8569 9.24646 33.4423 8.78789 34.1861 8.45822C34.93 8.12856 35.7753 7.96373 36.722 7.96373C37.6857 7.96373 38.5267 8.12856 39.2452 8.45822C39.968 8.78789 40.5301 9.24646 40.9316 9.83395C41.3331 10.4214 41.5402 11.1019 41.5529 11.8753H38.9219ZM43.1691 24.7767V11.3872H45.8318V13.0228H45.9522C46.0706 12.7608 46.2417 12.4945 46.4657 12.224C46.694 11.9493 46.9898 11.7211 47.3533 11.5393C47.721 11.3534 48.1775 11.2604 48.7227 11.2604C49.4327 11.2604 50.0878 11.4463 50.688 11.8183C51.2882 12.186 51.7679 12.7418 52.1271 13.4856C52.4864 14.2253 52.666 15.153 52.666 16.2688C52.666 17.355 52.4906 18.2721 52.1398 19.0202C51.7932 19.7641 51.3199 20.3283 50.7197 20.7129C50.1238 21.0933 49.456 21.2835 48.7163 21.2835C48.1923 21.2835 47.7464 21.1969 47.3787 21.0236C47.0152 20.8503 46.7172 20.6326 46.4848 20.3706C46.2523 20.1043 46.0748 19.8359 45.9522 19.5654H45.8698V24.7767H43.1691ZM45.8127 16.2561C45.8127 16.8351 45.8931 17.3402 46.0537 17.7713C46.2143 18.2024 46.4467 18.5384 46.751 18.7793C47.0553 19.016 47.4252 19.1343 47.8605 19.1343C48.3 19.1343 48.672 19.0139 48.9763 18.773C49.2806 18.5278 49.5109 18.1897 49.6673 17.7586C49.8279 17.3233 49.9082 16.8224 49.9082 16.2561C49.9082 15.694 49.83 15.1995 49.6736 14.7726C49.5173 14.3457 49.2869 14.0118 48.9826 13.7709C48.6783 13.53 48.3043 13.4096 47.8605 13.4096C47.4209 13.4096 47.049 13.5258 46.7447 13.7582C46.4446 13.9907 46.2143 14.3204 46.0537 14.7472C45.8931 15.1741 45.8127 15.6771 45.8127 16.2561ZM56.8862 21.3089C56.2649 21.3089 55.7113 21.2011 55.2252 20.9855C54.7392 20.7657 54.3546 20.4424 54.0714 20.0155C53.7924 19.5844 53.653 19.0477 53.653 18.4053C53.653 17.8643 53.7523 17.4099 53.9509 17.0422C54.1496 16.6745 54.4201 16.3787 54.7624 16.1547C55.1048 15.9306 55.4936 15.7616 55.9289 15.6475C56.3685 15.5334 56.8292 15.4531 57.311 15.4066C57.8773 15.3474 58.3338 15.2925 58.6804 15.2417C59.0269 15.1868 59.2784 15.1065 59.4348 15.0008C59.5912 14.8952 59.6694 14.7388 59.6694 14.5317V14.4936C59.6694 14.0921 59.5426 13.7815 59.289 13.5617C59.0396 13.3419 58.6846 13.232 58.2239 13.232C57.7379 13.232 57.3511 13.3398 57.0637 13.5554C56.7763 13.7667 56.5861 14.033 56.4932 14.3542L53.9953 14.1513C54.1221 13.5596 54.3715 13.0482 54.7434 12.6171C55.1153 12.1818 55.595 11.8479 56.1825 11.6154C56.7742 11.3787 57.4589 11.2604 58.2366 11.2604C58.7776 11.2604 59.2953 11.3238 59.7898 11.4506C60.2885 11.5774 60.7302 11.7739 61.1148 12.0402C61.5037 12.3064 61.8101 12.6488 62.0341 13.0672C62.2581 13.4814 62.3701 13.978 62.3701 14.557V21.125H59.8088V19.7746H59.7328C59.5764 20.0789 59.3672 20.3473 59.1051 20.5798C58.8431 20.808 58.5282 20.9876 58.1605 21.1187C57.7928 21.2455 57.368 21.3089 56.8862 21.3089ZM57.6597 19.445C58.057 19.445 58.4078 19.3668 58.7121 19.2104C59.0164 19.0498 59.2552 18.8342 59.4285 18.5638C59.6017 18.2933 59.6884 17.9868 59.6884 17.6445V16.6111C59.6039 16.6661 59.4876 16.7168 59.3397 16.7633C59.196 16.8055 59.0333 16.8457 58.8515 16.8837C58.6698 16.9175 58.4881 16.9492 58.3063 16.9788C58.1246 17.0042 57.9598 17.0274 57.8118 17.0486C57.4948 17.095 57.218 17.169 56.9813 17.2704C56.7446 17.3719 56.5608 17.5092 56.4298 17.6825C56.2987 17.8516 56.2332 18.0629 56.2332 18.3165C56.2332 18.6842 56.3664 18.9653 56.6326 19.1597C56.9031 19.3499 57.2455 19.445 57.6597 19.445ZM68.5081 21.3152C67.5106 21.3152 66.6527 21.1039 65.9342 20.6812C65.2199 20.2543 64.6704 19.6626 64.2858 18.9061C63.9054 18.1496 63.7153 17.2789 63.7153 16.2941C63.7153 15.2967 63.9076 14.4218 64.2922 13.6695C64.681 12.9129 65.2326 12.3233 65.9468 11.9007C66.6611 11.4738 67.5106 11.2604 68.4954 11.2604C69.3449 11.2604 70.0888 11.4147 70.727 11.7232C71.3652 12.0317 71.8703 12.4649 72.2422 13.0228C72.6141 13.5807 72.8191 14.2358 72.8571 14.9881H70.3086C70.2367 14.5021 70.0465 14.1111 69.738 13.8153C69.4337 13.5152 69.0343 13.3652 68.5398 13.3652C68.1214 13.3652 67.7558 13.4793 67.443 13.7075C67.1345 13.9315 66.8936 14.2591 66.7203 14.6902C66.547 15.1213 66.4604 15.6432 66.4604 16.2561C66.4604 16.8774 66.5449 17.4057 66.7139 17.841C66.8872 18.2763 67.1303 18.6081 67.443 18.8364C67.7558 19.0646 68.1214 19.1787 68.5398 19.1787C68.8483 19.1787 69.1252 19.1153 69.3703 18.9885C69.6196 18.8617 69.8246 18.6779 69.9852 18.437C70.1501 18.1918 70.2578 17.8981 70.3086 17.5557H72.8571C72.8149 18.2996 72.612 18.9547 72.2485 19.521C71.8893 20.0832 71.3927 20.5227 70.7587 20.8397C70.1247 21.1567 69.3745 21.3152 68.5081 21.3152ZM78.6671 21.3152C77.6654 21.3152 76.8032 21.1123 76.0804 20.7066C75.3619 20.2966 74.8083 19.7176 74.4194 18.9695C74.0306 18.2172 73.8362 17.3275 73.8362 16.3005C73.8362 15.2988 74.0306 14.4197 74.4194 13.6631C74.8083 12.9066 75.3556 12.317 76.0614 11.8944C76.7715 11.4717 77.6041 11.2604 78.5593 11.2604C79.2017 11.2604 79.7998 11.3639 80.3534 11.571C80.9113 11.7739 81.3974 12.0803 81.8116 12.4903C82.23 12.9003 82.5554 13.4159 82.7879 14.0372C83.0203 14.6543 83.1366 15.377 83.1366 16.2054V16.9471H74.9139V15.2734H80.5943C80.5943 14.8846 80.5098 14.5401 80.3407 14.2401C80.1717 13.94 79.9371 13.7054 79.637 13.5363C79.3412 13.3631 78.9967 13.2764 78.6037 13.2764C78.1937 13.2764 77.8302 13.3715 77.5132 13.5617C77.2005 13.7477 76.9553 13.9991 76.7778 14.3161C76.6003 14.6289 76.5094 14.9776 76.5052 15.3622V16.9535C76.5052 17.4353 76.594 17.8516 76.7715 18.2024C76.9532 18.5532 77.2089 18.8237 77.5386 19.0139C77.8683 19.2041 78.2592 19.2992 78.7114 19.2992C79.0115 19.2992 79.2862 19.2569 79.5356 19.1724C79.785 19.0878 79.9984 18.961 80.1759 18.792C80.3534 18.6229 80.4887 18.4158 80.5817 18.1707L83.0795 18.3355C82.9527 18.9357 82.6928 19.4598 82.2997 19.9078C81.9109 20.3516 81.4079 20.6981 80.7909 20.9475C80.178 21.1926 79.4701 21.3152 78.6671 21.3152ZM88.3168 21.125V11.3872H91.0175V21.125H88.3168ZM89.6735 10.1319C89.272 10.1319 88.9275 9.99878 88.6401 9.73251C88.357 9.46201 88.2154 9.13869 88.2154 8.76253C88.2154 8.3906 88.357 8.0715 88.6401 7.80523C88.9275 7.53474 89.272 7.39949 89.6735 7.39949C90.075 7.39949 90.4174 7.53474 90.7006 7.80523C90.988 8.0715 91.1317 8.3906 91.1317 8.76253C91.1317 9.13869 90.988 9.46201 90.7006 9.73251C90.4174 9.99878 90.075 10.1319 89.6735 10.1319ZM92.8746 8.14124H96.2601L99.8357 16.8647H99.9878L103.563 8.14124H106.949V21.125H104.286V12.6741H104.178L100.818 21.0616H99.0052L95.6451 12.6424H95.5373V21.125H92.8746V8.14124ZM113.203 21.3152C112.218 21.3152 111.366 21.106 110.648 20.6876C109.933 20.2649 109.382 19.6774 108.993 18.9251C108.604 18.1686 108.41 17.2916 108.41 16.2941C108.41 15.2882 108.604 14.4091 108.993 13.6568C109.382 12.9003 109.933 12.3128 110.648 11.8944C111.366 11.4717 112.218 11.2604 113.203 11.2604C114.187 11.2604 115.037 11.4717 115.751 11.8944C116.47 12.3128 117.023 12.9003 117.412 13.6568C117.801 14.4091 117.995 15.2882 117.995 16.2941C117.995 17.2916 117.801 18.1686 117.412 18.9251C117.023 19.6774 116.47 20.2649 115.751 20.6876C115.037 21.106 114.187 21.3152 113.203 21.3152ZM113.215 19.2231C113.663 19.2231 114.037 19.0963 114.337 18.8427C114.637 18.5849 114.864 18.2341 115.016 17.7903C115.172 17.3465 115.25 16.8415 115.25 16.2751C115.25 15.7088 115.172 15.2037 115.016 14.7599C114.864 14.3161 114.637 13.9653 114.337 13.7075C114.037 13.4497 113.663 13.3208 113.215 13.3208C112.763 13.3208 112.383 13.4497 112.074 13.7075C111.77 13.9653 111.539 14.3161 111.383 14.7599C111.231 15.2037 111.155 15.7088 111.155 16.2751C111.155 16.8415 111.231 17.3465 111.383 17.7903C111.539 18.2341 111.77 18.5849 112.074 18.8427C112.383 19.0963 112.763 19.2231 113.215 19.2231ZM112.233 10.1319L113.577 7.24734H116.074L114.141 10.1319H112.233ZM128.159 11.3872L124.755 21.125H121.712L118.307 11.3872H121.16L123.182 18.3545H123.284L125.3 11.3872H128.159ZM133.308 21.3152C132.306 21.3152 131.444 21.1123 130.721 20.7066C130.003 20.2966 129.449 19.7176 129.06 18.9695C128.672 18.2172 128.477 17.3275 128.477 16.3005C128.477 15.2988 128.672 14.4197 129.06 13.6631C129.449 12.9066 129.997 12.317 130.702 11.8944C131.413 11.4717 132.245 11.2604 133.2 11.2604C133.843 11.2604 134.441 11.3639 134.994 11.571C135.552 11.7739 136.038 12.0803 136.453 12.4903C136.871 12.9003 137.196 13.4159 137.429 14.0372C137.661 14.6543 137.778 15.377 137.778 16.2054V16.9471H129.555V15.2734H135.235C135.235 14.8846 135.151 14.5401 134.982 14.2401C134.813 13.94 134.578 13.7054 134.278 13.5363C133.982 13.3631 133.638 13.2764 133.245 13.2764C132.835 13.2764 132.471 13.3715 132.154 13.5617C131.841 13.7477 131.596 13.9991 131.419 14.3161C131.241 14.6289 131.15 14.9776 131.146 15.3622V16.9535C131.146 17.4353 131.235 17.8516 131.413 18.2024C131.594 18.5532 131.85 18.8237 132.18 19.0139C132.509 19.2041 132.9 19.2992 133.352 19.2992C133.653 19.2992 133.927 19.2569 134.177 19.1724C134.426 19.0878 134.639 18.961 134.817 18.792C134.994 18.6229 135.13 18.4158 135.223 18.1707L137.721 18.3355C137.594 18.9357 137.334 19.4598 136.941 19.9078C136.552 20.3516 136.049 20.6981 135.432 20.9475C134.819 21.1926 134.111 21.3152 133.308 21.3152ZM139.183 21.125V11.3872H141.884V21.125H139.183ZM140.54 10.1319C140.138 10.1319 139.794 9.99878 139.506 9.73251C139.223 9.46201 139.082 9.13869 139.082 8.76253C139.082 8.3906 139.223 8.0715 139.506 7.80523C139.794 7.53474 140.138 7.39949 140.54 7.39949C140.941 7.39949 141.284 7.53474 141.567 7.80523C141.854 8.0715 141.998 8.3906 141.998 8.76253C141.998 9.13869 141.854 9.46201 141.567 9.73251C141.284 9.99878 140.941 10.1319 140.54 10.1319ZM151.792 14.164L149.32 14.3161C149.278 14.1048 149.187 13.9146 149.047 13.7456C148.908 13.5723 148.724 13.4349 148.496 13.3335C148.272 13.2278 148.003 13.175 147.69 13.175C147.272 13.175 146.919 13.2637 146.632 13.4412C146.344 13.6145 146.201 13.847 146.201 14.1386C146.201 14.3711 146.294 14.5676 146.48 14.7282C146.666 14.8888 146.985 15.0177 147.437 15.1149L149.199 15.47C150.146 15.6644 150.852 15.9771 151.317 16.4082C151.782 16.8393 152.014 17.4057 152.014 18.1073C152.014 18.7455 151.826 19.3055 151.45 19.7873C151.078 20.2691 150.567 20.6453 149.916 20.9158C149.269 21.1821 148.523 21.3152 147.678 21.3152C146.389 21.3152 145.362 21.0468 144.597 20.51C143.836 19.9691 143.39 19.2336 143.259 18.3038L145.915 18.1643C145.996 18.5574 146.19 18.8575 146.499 19.0646C146.807 19.2675 147.202 19.3689 147.684 19.3689C148.157 19.3689 148.538 19.278 148.825 19.0963C149.117 18.9103 149.265 18.6715 149.269 18.3799C149.265 18.1348 149.161 17.934 148.958 17.7776C148.756 17.617 148.443 17.4944 148.02 17.4099L146.334 17.0739C145.383 16.8837 144.675 16.5541 144.21 16.0849C143.749 15.6158 143.519 15.0177 143.519 14.2908C143.519 13.6653 143.688 13.1264 144.026 12.6741C144.368 12.2219 144.848 11.8732 145.465 11.6281C146.087 11.383 146.813 11.2604 147.646 11.2604C148.876 11.2604 149.844 11.5203 150.55 12.0402C151.26 12.56 151.674 13.268 151.792 14.164Z" fill="black"/>
<defs>
<clipPath id="clip0_128_66">
<rect width="24.4223" height="32.3942" fill="white" transform="translate(0 0.330078)"/>
</clipPath>
</defs>
</svg>
